<svg width="72" height="72" viewBox="0 0 72 72" fill="none" xmlns="http://www.w3.org/2000/svg">
<circle cx="36" cy="36" r="36" fill="#1B1A3D"/>
<path d="M37.5 21.375C39.9062 21.375 41.875 23.3438 41.875 25.75C41.875 28.1562 39.9062 30.125 37.5 30.125C35.0938 30.125 33.125 28.1562 33.125 25.75C33.125 23.3438 35.0938 21.375 37.5 21.375ZM37.5 43.25C43.4062 43.25 50.1875 46.0719 50.625 47.625H24.375C24.8781 46.05 31.6156 43.25 37.5 43.25ZM37.5 17C32.6656 17 28.75 20.9156 28.75 25.75C28.75 30.5844 32.6656 34.5 37.5 34.5C42.3344 34.5 46.25 30.5844 46.25 25.75C46.25 20.9156 42.3344 17 37.5 17ZM37.5 38.875C31.6594 38.875 20 41.8062 20 47.625V52H55V47.625C55 41.8062 43.3406 38.875 37.5 38.875Z" fill="white"/>
</svg>
