<svg width="14" height="18" viewBox="0 0 14 18" fill="none" xmlns="http://www.w3.org/2000/svg">
<path d="M12.814 0.408606C13.1254 0.657021 13.2968 0.989243 13.2905 1.33221C13.2841 1.67518 13.1005 2.00082 12.7801 2.23751L4.3192 8.4852L12.5425 15.0424C12.845 15.2921 13.0088 15.622 12.9986 15.961C12.9885 16.3001 12.8052 16.6212 12.4883 16.8552C12.1714 17.0892 11.7462 17.2174 11.3043 17.2122C10.8623 17.2069 10.4391 17.0686 10.1256 16.8271L0.727775 9.33334C0.416337 9.08492 0.244955 8.7527 0.251318 8.40973C0.257682 8.06676 0.441269 7.74112 0.761708 7.50443L10.431 0.364393C10.7516 0.127777 11.1827 -0.000489415 11.6295 0.00780162C12.0764 0.0160927 12.5025 0.160262 12.814 0.408606Z" fill="#E8595B"/>
</svg>
