<svg width="50" height="48" viewBox="0 0 50 48" fill="none" xmlns="http://www.w3.org/2000/svg">
<rect x="1.5" y="15.5" width="17.9474" height="31" stroke="#E8595B"/>
<rect x="19.1846" y="25.5" width="19.2105" height="21" stroke="#E8595B"/>
<path d="M29.5523 25.5241L20.4471 25.9746V16V15.5H19.9471H10.3418V8.5H29.5523V25.5241Z" stroke="#E8595B"/>
<rect x="29.2891" y="3.5" width="19.2105" height="22" stroke="#E8595B"/>
<rect x="14.1318" y="3.5" width="11.6316" height="4" stroke="#E8595B"/>
<rect x="39.3945" y="25.5" width="9.10526" height="21" stroke="#E8595B"/>
<rect x="25" y="28" width="1.26316" height="16" rx="0.631579" fill="#E8595B"/>
<rect x="14.8945" y="13" width="2" height="10.1053" rx="1" transform="rotate(-90 14.8945 13)" fill="#E8595B"/>
<rect x="19.9473" y="18" width="2" height="5.05263" rx="1" transform="rotate(-90 19.9473 18)" fill="#E8595B"/>
<rect x="19.9473" y="22" width="2" height="5.05263" rx="1" transform="rotate(-90 19.9473 22)" fill="#E8595B"/>
<rect x="33.8418" y="6" width="2.52632" height="4" rx="1.26316" fill="#E8595B"/>
<rect x="4.78906" y="18" width="2.52632" height="4" rx="1.26316" fill="#E8595B"/>
<rect x="37.6318" y="6" width="2.52632" height="4" rx="1.26316" fill="#E8595B"/>
<rect x="8.5791" y="18" width="2.52632" height="4" rx="1.26316" fill="#E8595B"/>
<rect x="41.4209" y="6" width="2.52632" height="4" rx="1.26316" fill="#E8595B"/>
<rect x="12.3682" y="18" width="2.52632" height="4" rx="1.26316" fill="#E8595B"/>
<rect x="33.8418" y="12" width="2.52632" height="4" rx="1.26316" fill="#E8595B"/>
<rect x="4.78906" y="24" width="2.52632" height="4" rx="1.26316" fill="#E8595B"/>
<rect x="37.6318" y="12" width="2.52632" height="4" rx="1.26316" fill="#E8595B"/>
<rect x="8.5791" y="24" width="2.52632" height="4" rx="1.26316" fill="#E8595B"/>
<rect x="41.4209" y="12" width="2.52632" height="4" rx="1.26316" fill="#E8595B"/>
<rect x="12.3682" y="24" width="2.52632" height="4" rx="1.26316" fill="#E8595B"/>
<rect x="33.8418" y="18" width="2.52632" height="4" rx="1.26316" fill="#E8595B"/>
<rect x="4.78906" y="30" width="2.52632" height="4" rx="1.26316" fill="#E8595B"/>
<rect x="37.6318" y="18" width="2.52632" height="4" rx="1.26316" fill="#E8595B"/>
<rect x="8.5791" y="30" width="2.52632" height="4" rx="1.26316" fill="#E8595B"/>
<rect x="41.4209" y="18" width="2.52632" height="4" rx="1.26316" fill="#E8595B"/>
<rect x="12.3682" y="30" width="2.52632" height="4" rx="1.26316" fill="#E8595B"/>
<rect x="42.6846" y="28" width="2.52632" height="4" rx="1.26316" fill="#E8595B"/>
<rect x="42.6846" y="33" width="2.52632" height="4" rx="1.26316" fill="#E8595B"/>
<rect x="42.6846" y="38" width="2.52632" height="4" rx="1.26316" fill="#E8595B"/>
<rect x="28.7891" y="28" width="1.26316" height="16" rx="0.631579" fill="#E8595B"/>
<rect x="32.5791" y="28" width="1.26316" height="16" rx="0.631579" fill="#E8595B"/>
<rect x="6.5" y="36.5" width="8" height="10" stroke="#E8595B"/>
<rect x="7.5" y="37.5" width="6" height="9" stroke="#E8595B"/>
<rect x="18.6846" width="2.52632" height="3" fill="#E8595B"/>
<line x1="49.5" y1="3" x2="49.5" y2="47" stroke="#E8595B"/>
<line x1="0.5" y1="15" x2="0.500001" y2="48" stroke="#E8595B"/>
<line x1="1" y1="47.5" x2="50" y2="47.5" stroke="#E8595B"/>
<line y1="14.5" x2="10" y2="14.5" stroke="#E8595B"/>
<line x1="9" y1="7.5" x2="19" y2="7.5" stroke="#E8595B"/>
<line x1="29" y1="2.5" x2="50" y2="2.5" stroke="#E8595B"/>
<line x1="9.5" y1="14" x2="9.5" y2="8" stroke="#E8595B"/>
</svg>
