<svg width="13" height="8" viewBox="0 0 13 8" fill="none" xmlns="http://www.w3.org/2000/svg">
<path d="M0.533276 0.962232C0.709084 0.786477 0.947497 0.687744 1.19609 0.687744C1.44468 0.687744 1.68309 0.786477 1.8589 0.962232L6.49953 5.60286L11.1402 0.962232C11.317 0.791458 11.5538 0.696963 11.7996 0.699099C12.0454 0.701235 12.2805 0.799831 12.4544 0.973652C12.6282 1.14747 12.7268 1.38261 12.7289 1.62842C12.731 1.87423 12.6365 2.11104 12.4658 2.28786L7.16234 7.59129C6.98653 7.76705 6.74812 7.86578 6.49953 7.86578C6.25094 7.86578 6.01252 7.76705 5.83671 7.59129L0.533276 2.28786C0.357522 2.11205 0.258789 1.87364 0.258789 1.62504C0.258789 1.37645 0.357522 1.13804 0.533276 0.962232Z" fill="#192447"/>
</svg>
