<svg width="22" height="22" viewBox="0 0 22 22" fill="none" xmlns="http://www.w3.org/2000/svg">
<path d="M8.888 9.746C8.943 9.383 9.064 9.064 9.218 8.789C9.372 8.514 9.592 8.283 9.867 8.107C10.131 7.942 10.461 7.865 10.868 7.854C11.121 7.865 11.352 7.909 11.561 7.997C11.781 8.096 11.979 8.228 12.133 8.393C12.287 8.558 12.408 8.756 12.507 8.976C12.606 9.196 12.65 9.438 12.661 9.68H14.63C14.608 9.163 14.509 8.69 14.322 8.261C14.135 7.832 13.882 7.458 13.552 7.15C13.222 6.842 12.826 6.6 12.364 6.424C11.902 6.248 11.396 6.171 10.835 6.171C10.12 6.171 9.493 6.292 8.965 6.545C8.437 6.798 7.997 7.128 7.645 7.557C7.293 7.986 7.029 8.481 6.864 9.053C6.699 9.625 6.6 10.219 6.6 10.857V11.154C6.6 11.792 6.688 12.386 6.853 12.958C7.018 13.53 7.282 14.025 7.634 14.443C7.986 14.861 8.426 15.202 8.954 15.444C9.482 15.686 10.109 15.818 10.824 15.818C11.341 15.818 11.825 15.73 12.276 15.565C12.727 15.4 13.123 15.169 13.464 14.872C13.805 14.575 14.08 14.234 14.278 13.838C14.476 13.442 14.597 13.024 14.608 12.573H12.639C12.628 12.804 12.573 13.013 12.474 13.211C12.375 13.409 12.243 13.574 12.078 13.717C11.913 13.86 11.726 13.97 11.506 14.047C11.297 14.124 11.077 14.146 10.846 14.157C10.45 14.146 10.12 14.069 9.867 13.904C9.592 13.728 9.372 13.497 9.218 13.222C9.064 12.947 8.943 12.617 8.888 12.254C8.833 11.891 8.8 11.517 8.8 11.154V10.857C8.8 10.472 8.833 10.109 8.888 9.746ZM11 0C4.928 0 0 4.928 0 11C0 17.072 4.928 22 11 22C17.072 22 22 17.072 22 11C22 4.928 17.072 0 11 0ZM11 19.8C6.149 19.8 2.2 15.851 2.2 11C2.2 6.149 6.149 2.2 11 2.2C15.851 2.2 19.8 6.149 19.8 11C19.8 15.851 15.851 19.8 11 19.8Z" fill="white"/>
</svg>
