<svg width="1137" height="549" viewBox="0 0 1137 549" fill="none" xmlns="http://www.w3.org/2000/svg">
<path d="M297 443H839" stroke="black" stroke-width="3" stroke-dasharray="6 6"/>
<path d="M920 289L749 174" stroke="black" stroke-width="3" stroke-dasharray="6 6"/>
<path d="M254 289L425 174" stroke="black" stroke-width="3" stroke-dasharray="6 6"/>
<mask id="mask0_1105_2" style="mask-type:luminance" maskUnits="userSpaceOnUse" x="855" y="266" width="282" height="283">
<path d="M1137 266H855V549H1137V266Z" fill="white"/>
</mask>
<g mask="url(#mask0_1105_2)">
<path d="M944.758 296.263L922.797 310.894L905.412 296.263L882.536 320.953L894.431 335.584L882.536 361.189L861.49 355.702L856 390.451L873.386 395.938V424.286L856 429.773L866.065 460.864L887.111 457.206L898.091 480.982L887.111 492.87L910.902 517.56L925.543 507.501L951.163 521.218L947.503 539.507L977.699 548.652L985.02 528.534H1013.39L1018.88 545.909L1051.82 536.764L1047.24 517.56L1071.03 502.929L1085.67 517.56L1110.38 492.87L1095.74 477.324L1110.38 452.634L1129.6 457.206L1136 424.286L1117.7 417.885V390.451L1136 384.05L1125.93 352.044L1105.8 355.702L1092.99 331.012L1105.8 317.295L1082.01 291.69L1065.54 306.321L1041.75 291.69L1044.5 273.401L1013.39 267L1006.98 285.289H980.444L972.209 267L942.013 276.144L944.758 296.263Z" fill="url(#paint0_linear_1105_2)" fill-opacity="0.6" stroke="black" stroke-width="0.5"/>
<path d="M946.464 404.288C946.464 405.136 946.264 405.936 945.864 406.688C945.464 407.44 944.824 408.056 943.944 408.536C943.064 409 941.936 409.232 940.56 409.232H937.536V416H934.8V399.32H940.56C941.84 399.32 942.92 399.544 943.8 399.992C944.696 400.424 945.36 401.016 945.792 401.768C946.24 402.52 946.464 403.36 946.464 404.288ZM940.56 407C941.6 407 942.376 406.768 942.888 406.304C943.4 405.824 943.656 405.152 943.656 404.288C943.656 402.464 942.624 401.552 940.56 401.552H937.536V407H940.56ZM951.809 404.696C952.209 404.024 952.737 403.504 953.393 403.136C954.065 402.752 954.857 402.56 955.769 402.56V405.392H955.073C954.001 405.392 953.185 405.664 952.625 406.208C952.081 406.752 951.809 407.696 951.809 409.04V416H949.073V402.776H951.809V404.696ZM959.676 401.024C959.18 401.024 958.764 400.856 958.428 400.52C958.092 400.184 957.924 399.768 957.924 399.272C957.924 398.776 958.092 398.36 958.428 398.024C958.764 397.688 959.18 397.52 959.676 397.52C960.156 397.52 960.564 397.688 960.9 398.024C961.236 398.36 961.404 398.776 961.404 399.272C961.404 399.768 961.236 400.184 960.9 400.52C960.564 400.856 960.156 401.024 959.676 401.024ZM961.02 402.776V416H958.284V402.776H961.02ZM963.701 409.376C963.701 408.016 963.973 406.824 964.517 405.8C965.077 404.76 965.845 403.96 966.821 403.4C967.797 402.84 968.917 402.56 970.181 402.56C971.781 402.56 973.101 402.944 974.141 403.712C975.197 404.464 975.909 405.544 976.277 406.952H973.325C973.085 406.296 972.701 405.784 972.173 405.416C971.645 405.048 970.981 404.864 970.181 404.864C969.061 404.864 968.165 405.264 967.493 406.064C966.837 406.848 966.509 407.952 966.509 409.376C966.509 410.8 966.837 411.912 967.493 412.712C968.165 413.512 969.061 413.912 970.181 413.912C971.765 413.912 972.813 413.216 973.325 411.824H976.277C975.893 413.168 975.173 414.24 974.117 415.04C973.061 415.824 971.749 416.216 970.181 416.216C968.917 416.216 967.797 415.936 966.821 415.376C965.845 414.8 965.077 414 964.517 412.976C963.973 411.936 963.701 410.736 963.701 409.376ZM991.123 409.064C991.123 409.56 991.091 410.008 991.027 410.408H980.923C981.003 411.464 981.395 412.312 982.099 412.952C982.803 413.592 983.667 413.912 984.691 413.912C986.163 413.912 987.203 413.296 987.811 412.064H990.763C990.363 413.28 989.635 414.28 988.579 415.064C987.539 415.832 986.243 416.216 984.691 416.216C983.427 416.216 982.291 415.936 981.283 415.376C980.291 414.8 979.507 414 978.931 412.976C978.371 411.936 978.091 410.736 978.091 409.376C978.091 408.016 978.363 406.824 978.907 405.8C979.467 404.76 980.243 403.96 981.235 403.4C982.243 402.84 983.395 402.56 984.691 402.56C985.939 402.56 987.051 402.832 988.027 403.376C989.003 403.92 989.763 404.688 990.307 405.68C990.851 406.656 991.123 407.784 991.123 409.064ZM988.267 408.2C988.251 407.192 987.891 406.384 987.187 405.776C986.483 405.168 985.611 404.864 984.571 404.864C983.627 404.864 982.819 405.168 982.147 405.776C981.475 406.368 981.075 407.176 980.947 408.2H988.267ZM1010.83 399.32V401.552H1006.39V416H1003.65V401.552H999.186V399.32H1010.83ZM1016.33 404.696C1016.73 404.024 1017.26 403.504 1017.92 403.136C1018.59 402.752 1019.38 402.56 1020.29 402.56V405.392H1019.6C1018.53 405.392 1017.71 405.664 1017.15 406.208C1016.61 406.752 1016.33 407.696 1016.33 409.04V416H1013.6V402.776H1016.33V404.696ZM1034.93 409.064C1034.93 409.56 1034.9 410.008 1034.83 410.408H1024.73C1024.81 411.464 1025.2 412.312 1025.9 412.952C1026.61 413.592 1027.47 413.912 1028.5 413.912C1029.97 413.912 1031.01 413.296 1031.62 412.064H1034.57C1034.17 413.28 1033.44 414.28 1032.38 415.064C1031.34 415.832 1030.05 416.216 1028.5 416.216C1027.23 416.216 1026.1 415.936 1025.09 415.376C1024.1 414.8 1023.31 414 1022.74 412.976C1022.18 411.936 1021.9 410.736 1021.9 409.376C1021.9 408.016 1022.17 406.824 1022.71 405.8C1023.27 404.76 1024.05 403.96 1025.04 403.4C1026.05 402.84 1027.2 402.56 1028.5 402.56C1029.74 402.56 1030.86 402.832 1031.83 403.376C1032.81 403.92 1033.57 404.688 1034.11 405.68C1034.66 406.656 1034.93 407.784 1034.93 409.064ZM1032.07 408.2C1032.06 407.192 1031.7 406.384 1030.99 405.776C1030.29 405.168 1029.42 404.864 1028.38 404.864C1027.43 404.864 1026.62 405.168 1025.95 405.776C1025.28 406.368 1024.88 407.176 1024.75 408.2H1032.07ZM1044.29 402.56C1045.33 402.56 1046.26 402.776 1047.08 403.208C1047.91 403.64 1048.56 404.28 1049.02 405.128C1049.48 405.976 1049.72 407 1049.72 408.2V416H1047V408.608C1047 407.424 1046.71 406.52 1046.12 405.896C1045.52 405.256 1044.72 404.936 1043.69 404.936C1042.67 404.936 1041.85 405.256 1041.24 405.896C1040.65 406.52 1040.36 407.424 1040.36 408.608V416H1037.62V402.776H1040.36V404.288C1040.8 403.744 1041.37 403.32 1042.06 403.016C1042.76 402.712 1043.51 402.56 1044.29 402.56ZM1052.29 409.328C1052.29 408 1052.57 406.824 1053.11 405.8C1053.67 404.776 1054.42 403.984 1055.37 403.424C1056.33 402.848 1057.39 402.56 1058.56 402.56C1059.42 402.56 1060.27 402.752 1061.1 403.136C1061.95 403.504 1062.62 404 1063.12 404.624V398.24H1065.88V416H1063.12V414.008C1062.67 414.648 1062.05 415.176 1061.25 415.592C1060.46 416.008 1059.56 416.216 1058.53 416.216C1057.38 416.216 1056.33 415.928 1055.37 415.352C1054.42 414.76 1053.67 413.944 1053.11 412.904C1052.57 411.848 1052.29 410.656 1052.29 409.328ZM1063.12 409.376C1063.12 408.464 1062.93 407.672 1062.54 407C1062.17 406.328 1061.69 405.816 1061.08 405.464C1060.47 405.112 1059.81 404.936 1059.11 404.936C1058.41 404.936 1057.75 405.112 1057.14 405.464C1056.53 405.8 1056.04 406.304 1055.65 406.976C1055.29 407.632 1055.1 408.416 1055.1 409.328C1055.1 410.24 1055.29 411.04 1055.65 411.728C1056.04 412.416 1056.53 412.944 1057.14 413.312C1057.77 413.664 1058.42 413.84 1059.11 413.84C1059.81 413.84 1060.47 413.664 1061.08 413.312C1061.69 412.96 1062.17 412.448 1062.54 411.776C1062.93 411.088 1063.12 410.288 1063.12 409.376ZM1074.27 416.216C1073.23 416.216 1072.3 416.032 1071.46 415.664C1070.65 415.28 1070 414.768 1069.52 414.128C1069.04 413.472 1068.78 412.744 1068.75 411.944H1071.58C1071.63 412.504 1071.9 412.976 1072.38 413.36C1072.87 413.728 1073.49 413.912 1074.22 413.912C1074.99 413.912 1075.58 413.768 1076 413.48C1076.43 413.176 1076.65 412.792 1076.65 412.328C1076.65 411.832 1076.41 411.464 1075.93 411.224C1075.46 410.984 1074.72 410.72 1073.7 410.432C1072.7 410.16 1071.9 409.896 1071.27 409.64C1070.65 409.384 1070.1 408.992 1069.64 408.464C1069.19 407.936 1068.97 407.24 1068.97 406.376C1068.97 405.672 1069.18 405.032 1069.59 404.456C1070.01 403.864 1070.6 403.4 1071.37 403.064C1072.15 402.728 1073.05 402.56 1074.06 402.56C1075.56 402.56 1076.77 402.944 1077.68 403.712C1078.61 404.464 1079.1 405.496 1079.17 406.808H1076.43C1076.38 406.216 1076.14 405.744 1075.71 405.392C1075.28 405.04 1074.7 404.864 1073.96 404.864C1073.24 404.864 1072.69 405 1072.3 405.272C1071.92 405.544 1071.73 405.904 1071.73 406.352C1071.73 406.704 1071.86 407 1072.11 407.24C1072.37 407.48 1072.68 407.672 1073.05 407.816C1073.42 407.944 1073.96 408.112 1074.68 408.32C1075.64 408.576 1076.42 408.84 1077.03 409.112C1077.66 409.368 1078.19 409.752 1078.64 410.264C1079.09 410.776 1079.32 411.456 1079.34 412.304C1079.34 413.056 1079.13 413.728 1078.71 414.32C1078.3 414.912 1077.7 415.376 1076.94 415.712C1076.18 416.048 1075.3 416.216 1074.27 416.216Z" fill="black"/>
</g>
<mask id="mask1_1105_2" style="mask-type:luminance" maskUnits="userSpaceOnUse" x="2" y="266" width="282" height="283">
<path d="M284 266H2V549H284V266Z" fill="white"/>
</mask>
<g mask="url(#mask1_1105_2)">
<path d="M91.758 296.263L69.797 310.894L52.412 296.263L29.536 320.953L41.431 335.584L29.536 361.189L8.48999 355.702L3 390.451L20.386 395.938V424.286L3 429.773L13.065 460.864L34.111 457.206L45.091 480.982L34.111 492.87L57.902 517.56L72.543 507.501L98.163 521.218L94.503 539.507L124.699 548.652L132.02 528.534H160.39L165.88 545.909L198.82 536.764L194.24 517.56L218.03 502.929L232.67 517.56L257.38 492.87L242.74 477.324L257.38 452.634L276.6 457.206L283 424.286L264.7 417.885V390.451L283 384.05L272.93 352.044L252.8 355.702L239.99 331.012L252.8 317.295L229.01 291.69L212.54 306.321L188.75 291.69L191.5 273.401L160.39 267L153.98 285.289H127.444L119.209 267L89.013 276.144L91.758 296.263Z" fill="url(#paint1_linear_1105_2)" fill-opacity="0.6" stroke="black" stroke-width="0.5"/>
<path d="M87.3678 395.32V412H84.6318V400.576L79.5438 412H77.6478L72.5358 400.576V412H69.7998V395.32H72.7518L78.6078 408.4L84.4398 395.32H87.3678ZM103.084 405.064C103.084 405.56 103.052 406.008 102.988 406.408H92.8838C92.9638 407.464 93.3558 408.312 94.0598 408.952C94.7638 409.592 95.6278 409.912 96.6518 409.912C98.1238 409.912 99.1638 409.296 99.7718 408.064H102.724C102.324 409.28 101.596 410.28 100.54 411.064C99.4998 411.832 98.2038 412.216 96.6518 412.216C95.3878 412.216 94.2518 411.936 93.2438 411.376C92.2518 410.8 91.4678 410 90.8918 408.976C90.3318 407.936 90.0518 406.736 90.0518 405.376C90.0518 404.016 90.3238 402.824 90.8678 401.8C91.4278 400.76 92.2038 399.96 93.1958 399.4C94.2038 398.84 95.3558 398.56 96.6518 398.56C97.8998 398.56 99.0118 398.832 99.9878 399.376C100.964 399.92 101.724 400.688 102.268 401.68C102.812 402.656 103.084 403.784 103.084 405.064ZM100.228 404.2C100.212 403.192 99.8518 402.384 99.1478 401.776C98.4438 401.168 97.5718 400.864 96.5318 400.864C95.5878 400.864 94.7798 401.168 94.1078 401.776C93.4358 402.368 93.0358 403.176 92.9078 404.2H100.228ZM108.969 401.008V408.328C108.969 408.824 109.081 409.184 109.305 409.408C109.545 409.616 109.945 409.72 110.505 409.72H112.185V412H110.025C108.793 412 107.849 411.712 107.193 411.136C106.537 410.56 106.209 409.624 106.209 408.328V401.008H104.649V398.776H106.209V395.488H108.969V398.776H112.185V401.008H108.969ZM121.546 398.56C122.554 398.56 123.45 398.776 124.234 399.208C125.034 399.64 125.658 400.28 126.106 401.128C126.57 401.976 126.802 403 126.802 404.2V412H124.09V404.608C124.09 403.424 123.794 402.52 123.202 401.896C122.61 401.256 121.802 400.936 120.778 400.936C119.754 400.936 118.938 401.256 118.33 401.896C117.738 402.52 117.442 403.424 117.442 404.608V412H114.706V394.24H117.442V400.312C117.906 399.752 118.49 399.32 119.194 399.016C119.914 398.712 120.698 398.56 121.546 398.56ZM136.028 412.216C134.78 412.216 133.652 411.936 132.644 411.376C131.636 410.8 130.844 410 130.268 408.976C129.692 407.936 129.404 406.736 129.404 405.376C129.404 404.032 129.7 402.84 130.292 401.8C130.884 400.76 131.692 399.96 132.716 399.4C133.74 398.84 134.884 398.56 136.148 398.56C137.412 398.56 138.556 398.84 139.58 399.4C140.604 399.96 141.412 400.76 142.004 401.8C142.596 402.84 142.892 404.032 142.892 405.376C142.892 406.72 142.588 407.912 141.98 408.952C141.372 409.992 140.54 410.8 139.484 411.376C138.444 411.936 137.292 412.216 136.028 412.216ZM136.028 409.84C136.732 409.84 137.388 409.672 137.996 409.336C138.62 409 139.124 408.496 139.508 407.824C139.892 407.152 140.084 406.336 140.084 405.376C140.084 404.416 139.9 403.608 139.532 402.952C139.164 402.28 138.676 401.776 138.068 401.44C137.46 401.104 136.804 400.936 136.1 400.936C135.396 400.936 134.74 401.104 134.132 401.44C133.54 401.776 133.068 402.28 132.716 402.952C132.364 403.608 132.188 404.416 132.188 405.376C132.188 406.8 132.548 407.904 133.268 408.688C134.004 409.456 134.924 409.84 136.028 409.84ZM144.685 405.328C144.685 404 144.957 402.824 145.501 401.8C146.061 400.776 146.813 399.984 147.76 399.424C148.72 398.848 149.78 398.56 150.95 398.56C151.81 398.56 152.66 398.752 153.49 399.136C154.34 399.504 155.01 400 155.51 400.624V394.24H158.27V412H155.51V410.008C155.06 410.648 154.44 411.176 153.64 411.592C152.85 412.008 151.95 412.216 150.92 412.216C149.77 412.216 148.72 411.928 147.76 411.352C146.813 410.76 146.061 409.944 145.501 408.904C144.957 407.848 144.685 406.656 144.685 405.328ZM155.51 405.376C155.51 404.464 155.32 403.672 154.93 403C154.56 402.328 154.08 401.816 153.47 401.464C152.86 401.112 152.2 400.936 151.5 400.936C150.8 400.936 150.14 401.112 149.53 401.464C148.92 401.8 148.43 402.304 148.04 402.976C147.68 403.632 147.49 404.416 147.49 405.328C147.49 406.24 147.68 407.04 148.04 407.728C148.43 408.416 148.92 408.944 149.53 409.312C150.16 409.664 150.81 409.84 151.5 409.84C152.2 409.84 152.86 409.664 153.47 409.312C154.08 408.96 154.56 408.448 154.93 407.776C155.32 407.088 155.51 406.288 155.51 405.376ZM167.6 412.216C166.35 412.216 165.22 411.936 164.21 411.376C163.21 410.8 162.41 410 161.84 408.976C161.26 407.936 160.97 406.736 160.97 405.376C160.97 404.032 161.27 402.84 161.86 401.8C162.45 400.76 163.26 399.96 164.29 399.4C165.31 398.84 166.45 398.56 167.72 398.56C168.98 398.56 170.13 398.84 171.15 399.4C172.17 399.96 172.98 400.76 173.57 401.8C174.17 402.84 174.46 404.032 174.46 405.376C174.46 406.72 174.16 407.912 173.55 408.952C172.94 409.992 172.11 410.8 171.05 411.376C170.01 411.936 168.86 412.216 167.6 412.216ZM167.6 409.84C168.3 409.84 168.96 409.672 169.57 409.336C170.19 409 170.69 408.496 171.08 407.824C171.46 407.152 171.65 406.336 171.65 405.376C171.65 404.416 171.47 403.608 171.1 402.952C170.73 402.28 170.25 401.776 169.64 401.44C169.03 401.104 168.37 400.936 167.67 400.936C166.97 400.936 166.31 401.104 165.7 401.44C165.11 401.776 164.64 402.28 164.29 402.952C163.93 403.608 163.76 404.416 163.76 405.376C163.76 406.8 164.12 407.904 164.84 408.688C165.57 409.456 166.49 409.84 167.6 409.84ZM179.9 394.24V412H177.17V394.24H179.9ZM189.23 412.216C187.98 412.216 186.85 411.936 185.85 411.376C184.84 410.8 184.05 410 183.47 408.976C182.89 407.936 182.61 406.736 182.61 405.376C182.61 404.032 182.9 402.84 183.49 401.8C184.09 400.76 184.89 399.96 185.92 399.4C186.94 398.84 188.09 398.56 189.35 398.56C190.61 398.56 191.76 398.84 192.78 399.4C193.81 399.96 194.61 400.76 195.21 401.8C195.8 402.84 196.09 404.032 196.09 405.376C196.09 406.72 195.79 407.912 195.18 408.952C194.57 409.992 193.74 410.8 192.69 411.376C191.65 411.936 190.49 412.216 189.23 412.216ZM189.23 409.84C189.93 409.84 190.59 409.672 191.2 409.336C191.82 409 192.33 408.496 192.71 407.824C193.09 407.152 193.29 406.336 193.29 405.376C193.29 404.416 193.1 403.608 192.73 402.952C192.37 402.28 191.88 401.776 191.27 401.44C190.66 401.104 190.01 400.936 189.3 400.936C188.6 400.936 187.94 401.104 187.33 401.44C186.74 401.776 186.27 402.28 185.92 402.952C185.57 403.608 185.39 404.416 185.39 405.376C185.39 406.8 185.75 407.904 186.47 408.688C187.21 409.456 188.13 409.84 189.23 409.84ZM204.13 398.56C205.15 398.56 206.06 398.768 206.84 399.184C207.64 399.584 208.26 400.088 208.71 400.696V398.776H211.47V412.216C211.47 413.432 211.22 414.512 210.7 415.456C210.19 416.416 209.45 417.168 208.47 417.712C207.51 418.256 206.36 418.528 205.02 418.528C203.22 418.528 201.74 418.104 200.55 417.256C199.37 416.424 198.7 415.288 198.54 413.848H201.25C201.46 414.536 201.9 415.088 202.57 415.504C203.26 415.936 204.07 416.152 205.02 416.152C206.12 416.152 207.01 415.816 207.68 415.144C208.37 414.472 208.71 413.496 208.71 412.216V410.008C208.25 410.632 207.62 411.16 206.82 411.592C206.03 412.008 205.14 412.216 204.13 412.216C202.98 412.216 201.92 411.928 200.96 411.352C200.02 410.76 199.26 409.944 198.7 408.904C198.16 407.848 197.89 406.656 197.89 405.328C197.89 404 198.16 402.824 198.7 401.8C199.26 400.776 200.02 399.984 200.96 399.424C201.92 398.848 202.98 398.56 204.13 398.56ZM208.71 405.376C208.71 404.464 208.52 403.672 208.14 403C207.77 402.328 207.28 401.816 206.67 401.464C206.06 401.112 205.41 400.936 204.7 400.936C204 400.936 203.34 401.112 202.74 401.464C202.13 401.8 201.63 402.304 201.25 402.976C200.88 403.632 200.7 404.416 200.7 405.328C200.7 406.24 200.88 407.04 201.25 407.728C201.63 408.416 202.13 408.944 202.74 409.312C203.36 409.664 204.02 409.84 204.7 409.84C205.41 409.84 206.06 409.664 206.67 409.312C207.28 408.96 207.77 408.448 208.14 407.776C208.52 407.088 208.71 406.288 208.71 405.376ZM226.97 398.776L218.86 418.216H216.03L218.71 411.784L213.51 398.776H216.55L220.27 408.856L224.14 398.776H226.97Z" fill="black"/>
</g>
<mask id="mask2_1105_2" style="mask-type:luminance" maskUnits="userSpaceOnUse" x="436" y="0" width="302" height="304">
<path d="M738 0H436V304H738V0Z" fill="white"/>
</mask>
<g mask="url(#mask2_1105_2)">
<path d="M532.098 32.3527L508.569 48.0291L489.941 32.3527L465.431 58.8066L478.176 74.4829L465.431 101.917L442.882 96.0379L437 133.269L455.628 139.148V169.521L437 175.399L447.784 208.712L470.333 204.793L482.098 230.267L470.333 243.004L495.824 269.458L511.51 258.68L538.961 273.377L535.039 292.972L567.392 302.77L575.235 281.215H605.627L611.51 299.831L646.804 290.033L641.902 269.458L667.392 253.781L683.078 269.458L709.549 243.004L693.863 226.348L709.549 199.894L730.137 204.793L737 169.521L717.392 162.662V133.269L737 126.411L726.216 92.1188L704.647 96.0379L690.922 69.5841L704.647 54.8875L679.157 27.4539L661.51 43.1302L636.02 27.4539L638.961 7.85841L605.627 1L598.765 20.5954H570.333L561.51 1L529.157 10.7977L532.098 32.3527Z" fill="url(#paint2_linear_1105_2)" fill-opacity="0.6" stroke="black" stroke-width="0.5"/>
<path d="M515.536 137.32V154H512.8V137.32H515.536ZM525.8 140.56C526.84 140.56 527.768 140.776 528.584 141.208C529.416 141.64 530.064 142.28 530.528 143.128C530.992 143.976 531.224 145 531.224 146.2V154H528.512V146.608C528.512 145.424 528.216 144.52 527.624 143.896C527.032 143.256 526.224 142.936 525.2 142.936C524.176 142.936 523.36 143.256 522.752 143.896C522.16 144.52 521.864 145.424 521.864 146.608V154H519.128V140.776H521.864V142.288C522.312 141.744 522.88 141.32 523.568 141.016C524.272 140.712 525.016 140.56 525.8 140.56ZM537.906 143.008V150.328C537.906 150.824 538.018 151.184 538.242 151.408C538.482 151.616 538.882 151.72 539.442 151.72H541.122V154H538.962C537.73 154 536.786 153.712 536.13 153.136C535.474 152.56 535.146 151.624 535.146 150.328V143.008H533.586V140.776H535.146V137.488H537.906V140.776H541.122V143.008H537.906ZM546.38 142.696C546.78 142.024 547.308 141.504 547.964 141.136C548.636 140.752 549.428 140.56 550.34 140.56V143.392H549.644C548.572 143.392 547.756 143.664 547.196 144.208C546.652 144.752 546.38 145.696 546.38 147.04V154H543.644V140.776H546.38V142.696ZM558.591 154.216C557.343 154.216 556.215 153.936 555.207 153.376C554.199 152.8 553.407 152 552.831 150.976C552.255 149.936 551.967 148.736 551.967 147.376C551.967 146.032 552.263 144.84 552.855 143.8C553.447 142.76 554.255 141.96 555.279 141.4C556.303 140.84 557.447 140.56 558.711 140.56C559.975 140.56 561.119 140.84 562.143 141.4C563.167 141.96 563.975 142.76 564.567 143.8C565.159 144.84 565.455 146.032 565.455 147.376C565.455 148.72 565.151 149.912 564.543 150.952C563.935 151.992 563.103 152.8 562.047 153.376C561.007 153.936 559.855 154.216 558.591 154.216ZM558.591 151.84C559.295 151.84 559.951 151.672 560.559 151.336C561.183 151 561.687 150.496 562.071 149.824C562.455 149.152 562.647 148.336 562.647 147.376C562.647 146.416 562.463 145.608 562.095 144.952C561.727 144.28 561.239 143.776 560.631 143.44C560.023 143.104 559.367 142.936 558.663 142.936C557.959 142.936 557.303 143.104 556.695 143.44C556.103 143.776 555.631 144.28 555.279 144.952C554.927 145.608 554.751 146.416 554.751 147.376C554.751 148.8 555.111 149.904 555.831 150.688C556.567 151.456 557.487 151.84 558.591 151.84ZM567.247 147.328C567.247 146 567.519 144.824 568.063 143.8C568.623 142.776 569.375 141.984 570.319 141.424C571.279 140.848 572.343 140.56 573.511 140.56C574.375 140.56 575.223 140.752 576.055 141.136C576.903 141.504 577.575 142 578.071 142.624V136.24H580.831V154H578.071V152.008C577.623 152.648 576.999 153.176 576.199 153.592C575.415 154.008 574.511 154.216 573.487 154.216C572.335 154.216 571.279 153.928 570.319 153.352C569.375 152.76 568.623 151.944 568.063 150.904C567.519 149.848 567.247 148.656 567.247 147.328ZM578.071 147.376C578.071 146.464 577.879 145.672 577.495 145C577.127 144.328 576.639 143.816 576.031 143.464C575.423 143.112 574.767 142.936 574.063 142.936C573.359 142.936 572.703 143.112 572.095 143.464C571.487 143.8 570.991 144.304 570.607 144.976C570.239 145.632 570.055 146.416 570.055 147.328C570.055 148.24 570.239 149.04 570.607 149.728C570.991 150.416 571.487 150.944 572.095 151.312C572.719 151.664 573.375 151.84 574.063 151.84C574.767 151.84 575.423 151.664 576.031 151.312C576.639 150.96 577.127 150.448 577.495 149.776C577.879 149.088 578.071 148.288 578.071 147.376ZM596.401 140.776V154H593.665V152.44C593.233 152.984 592.665 153.416 591.961 153.736C591.273 154.04 590.537 154.192 589.753 154.192C588.713 154.192 587.777 153.976 586.945 153.544C586.129 153.112 585.481 152.472 585.001 151.624C584.537 150.776 584.305 149.752 584.305 148.552V140.776H587.017V148.144C587.017 149.328 587.313 150.24 587.905 150.88C588.497 151.504 589.305 151.816 590.329 151.816C591.353 151.816 592.161 151.504 592.753 150.88C593.361 150.24 593.665 149.328 593.665 148.144V140.776H596.401ZM599.099 147.376C599.099 146.016 599.371 144.824 599.915 143.8C600.475 142.76 601.243 141.96 602.219 141.4C603.195 140.84 604.315 140.56 605.579 140.56C607.179 140.56 608.499 140.944 609.539 141.712C610.595 142.464 611.307 143.544 611.675 144.952H608.723C608.483 144.296 608.099 143.784 607.571 143.416C607.043 143.048 606.379 142.864 605.579 142.864C604.459 142.864 603.563 143.264 602.891 144.064C602.235 144.848 601.907 145.952 601.907 147.376C601.907 148.8 602.235 149.912 602.891 150.712C603.563 151.512 604.459 151.912 605.579 151.912C607.163 151.912 608.211 151.216 608.723 149.824H611.675C611.291 151.168 610.571 152.24 609.515 153.04C608.459 153.824 607.147 154.216 605.579 154.216C604.315 154.216 603.195 153.936 602.219 153.376C601.243 152.8 600.475 152 599.915 150.976C599.371 149.936 599.099 148.736 599.099 147.376ZM617.594 143.008V150.328C617.594 150.824 617.706 151.184 617.93 151.408C618.17 151.616 618.57 151.72 619.13 151.72H620.81V154H618.65C617.418 154 616.474 153.712 615.818 153.136C615.162 152.56 614.834 151.624 614.834 150.328V143.008H613.274V140.776H614.834V137.488H617.594V140.776H620.81V143.008H617.594ZM624.723 139.024C624.227 139.024 623.811 138.856 623.475 138.52C623.139 138.184 622.971 137.768 622.971 137.272C622.971 136.776 623.139 136.36 623.475 136.024C623.811 135.688 624.227 135.52 624.723 135.52C625.203 135.52 625.611 135.688 625.947 136.024C626.283 136.36 626.451 136.776 626.451 137.272C626.451 137.768 626.283 138.184 625.947 138.52C625.611 138.856 625.203 139.024 624.723 139.024ZM626.067 140.776V154H623.331V140.776H626.067ZM635.395 154.216C634.147 154.216 633.019 153.936 632.011 153.376C631.003 152.8 630.211 152 629.635 150.976C629.059 149.936 628.771 148.736 628.771 147.376C628.771 146.032 629.067 144.84 629.659 143.8C630.251 142.76 631.059 141.96 632.083 141.4C633.107 140.84 634.251 140.56 635.515 140.56C636.779 140.56 637.923 140.84 638.947 141.4C639.971 141.96 640.779 142.76 641.371 143.8C641.963 144.84 642.259 146.032 642.259 147.376C642.259 148.72 641.955 149.912 641.347 150.952C640.739 151.992 639.907 152.8 638.851 153.376C637.811 153.936 636.659 154.216 635.395 154.216ZM635.395 151.84C636.099 151.84 636.755 151.672 637.363 151.336C637.987 151 638.491 150.496 638.875 149.824C639.259 149.152 639.451 148.336 639.451 147.376C639.451 146.416 639.267 145.608 638.899 144.952C638.531 144.28 638.043 143.776 637.435 143.44C636.827 143.104 636.171 142.936 635.467 142.936C634.763 142.936 634.107 143.104 633.499 143.44C632.907 143.776 632.435 144.28 632.083 144.952C631.731 145.608 631.555 146.416 631.555 147.376C631.555 148.8 631.915 149.904 632.635 150.688C633.371 151.456 634.291 151.84 635.395 151.84ZM651.636 140.56C652.676 140.56 653.604 140.776 654.42 141.208C655.252 141.64 655.9 142.28 656.364 143.128C656.828 143.976 657.06 145 657.06 146.2V154H654.348V146.608C654.348 145.424 654.052 144.52 653.46 143.896C652.868 143.256 652.06 142.936 651.036 142.936C650.012 142.936 649.196 143.256 648.588 143.896C647.996 144.52 647.7 145.424 647.7 146.608V154H644.964V140.776H647.7V142.288C648.148 141.744 648.716 141.32 649.404 141.016C650.108 140.712 650.852 140.56 651.636 140.56Z" fill="black"/>
</g>
<defs>
<linearGradient id="paint0_linear_1105_2" x1="996" y1="267" x2="996.413" y2="594.08" gradientUnits="userSpaceOnUse">
<stop offset="0.229167" stop-color="#192447"/>
<stop offset="1" stop-color="white"/>
</linearGradient>
<linearGradient id="paint1_linear_1105_2" x1="143" y1="267" x2="143.413" y2="594.08" gradientUnits="userSpaceOnUse">
<stop offset="0.229167" stop-color="#192447"/>
<stop offset="1" stop-color="white"/>
</linearGradient>
<linearGradient id="paint2_linear_1105_2" x1="587" y1="1" x2="587.442" y2="351.442" gradientUnits="userSpaceOnUse">
<stop offset="0.229167" stop-color="#192447"/>
<stop offset="1" stop-color="white"/>
</linearGradient>
</defs>
</svg>
