<svg width="37" height="38" viewBox="0 0 37 38" fill="none" xmlns="http://www.w3.org/2000/svg">
<g clip-path="url(#clip0_1100_18)">
<path d="M26.75 1.25H1.25V35.75H26.75V1.25Z" stroke="white" stroke-width="2.5"/>
<path d="M23 30.375H5V32H23V30.375Z" fill="white"/>
<path d="M23 25.5H5V27.5312H23V25.5Z" fill="white"/>
<path d="M23 20.625H5V22.6562H23V20.625Z" fill="white"/>
<path d="M23 15.75H5V17.7812H23V15.75Z" fill="white"/>
<path d="M23 10.875H5V12.9062H23V10.875Z" fill="white"/>
<path d="M16.7209 6H5V8.03125H16.7209V6Z" fill="white"/>
</g>
<path d="M30.9997 5H34.7367C34.8287 5 34.8749 5.1168 34.8113 5.18328C34.1563 5.86896 33.1242 7.39781 32.0468 9.5M32.0468 9.5C30.4216 12.6709 28.6931 17.1462 27.9997 22M32.0468 9.5H35.7978C35.8806 9.5 35.9307 9.59103 35.8813 9.65748C33.1815 13.2954 27.1056 23.281 27.4997 35.5" stroke="white"/>
<path d="M32.6375 2H27.1C27.0442 2 26.9992 2.04565 27 2.10143L27.4986 37C27.8774 12.7542 30.9771 3.93683 32.7199 2.22227C32.7922 2.15114 32.739 2 32.6375 2Z" stroke="white"/>
<defs>
<clipPath id="clip0_1100_18">
<rect width="28" height="37" fill="white"/>
</clipPath>
</defs>
</svg>
