<svg width="40" height="40" viewBox="0 0 40 40" fill="none" xmlns="http://www.w3.org/2000/svg">
<g clip-path="url(#clip0_1101_21)">
<path d="M35.9292 29.4301C36.6367 29.8489 37.5553 29.617 37.9204 28.8803C39.8308 25.0253 40.453 20.6428 39.6706 16.3853C38.7983 11.6381 36.2386 7.36649 32.4637 4.35855C28.6889 1.35062 23.9536 -0.190722 19.1315 0.0188796C14.3093 0.228481 9.72571 2.17488 6.22611 5.49901C2.72651 8.82314 0.547104 13.3007 0.0899472 18.1057C-0.36721 22.9107 0.928728 27.7189 3.73869 31.6434C6.54864 35.5678 10.683 38.3437 15.3791 39.4589C19.5908 40.459 23.9994 40.0629 27.9475 38.3532C28.702 38.0264 28.9809 37.1209 28.5989 36.3928C28.217 35.6647 27.3191 35.3906 26.5604 35.7075C23.2526 37.0891 19.5794 37.3959 16.067 36.5619C12.0701 35.6127 8.55126 33.2501 6.15964 29.9099C3.76803 26.5698 2.66503 22.4774 3.05412 18.3877C3.44322 14.2981 5.29816 10.4871 8.27675 7.65789C11.2553 4.82865 15.1566 3.17202 19.2608 2.99363C23.365 2.81523 27.3953 4.1271 30.6082 6.68722C33.821 9.24735 35.9996 12.883 36.7421 16.9234C37.3946 20.474 36.8994 24.1266 35.3496 27.359C34.9941 28.1004 35.2216 29.0112 35.9292 29.4301Z" fill="white"/>
<path d="M10 26.5L19 30.5V19.5L10 15V26.5Z" fill="white"/>
<path d="M30.0479 26.4622L21.0187 31L21.0186 19.5001L29.9995 14.9622L30.0479 26.4622Z" fill="white"/>
<path d="M11 13L20 8L29 13.5L20 18L11 13Z" fill="white"/>
</g>
<defs>
<clipPath id="clip0_1101_21">
<rect width="40" height="40" fill="white"/>
</clipPath>
</defs>
</svg>
