<svg width="18" height="19" viewBox="0 0 18 19" fill="none" xmlns="http://www.w3.org/2000/svg">
<path d="M12.2259 2.90091L9.83371 1.09058C9.16987 0.588208 8.23028 0.723658 7.73244 1.38152L0.491104 10.9504C-0.00673752 11.6082 0.122731 12.5433 0.786571 13.0457L3.17879 14.856C3.67663 14.1981 4.61768 14.0732 5.27553 14.571C5.93339 15.0689 6.06884 16.0085 5.56648 16.6723L7.95869 18.4827C8.61655 18.9805 9.56212 18.8496 10.06 18.1917L17.3013 8.62285C17.7991 7.96499 17.6682 7.01942 17.0104 6.52158L14.6181 4.71124C14.1203 5.3691 13.1747 5.50003 12.5169 5.00218C11.859 4.50434 11.7281 3.55877 12.2259 2.90091ZM10.4476 3.43625C10.3217 4.46021 10.7326 5.53299 11.6117 6.19829C12.4908 6.86359 13.6349 6.96752 14.5861 6.56812L16.1052 7.71768L8.86386 17.2865L7.3448 16.137C7.47072 15.113 7.05984 14.0402 6.1807 13.3749C5.29558 12.7051 4.16203 12.5997 3.21079 12.9991L1.68721 11.8555L8.92855 2.28668L10.4476 3.43625ZM10.2378 11.7424L11.1429 10.5463L12.3391 11.4515L11.4339 12.6476L10.2378 11.7424ZM7.84556 9.93208L8.75073 8.73598L9.94684 9.64114L9.04167 10.8373L7.84556 9.93208ZM5.45335 8.12175L6.35852 6.92564L7.55462 7.83081L6.64946 9.02692L5.45335 8.12175Z" fill="#EB3223"/>
</svg>
