<svg width="15" height="15" viewBox="0 0 15 15" fill="none" xmlns="http://www.w3.org/2000/svg">
<path d="M11.6667 6.66667V0H3.33333V3.33333H0V15H6.66667V11.6667H8.33333V15H15V6.66667H11.6667ZM3.33333 13.3333H1.66667V11.6667H3.33333V13.3333ZM3.33333 10H1.66667V8.33333H3.33333V10ZM3.33333 6.66667H1.66667V5H3.33333V6.66667ZM6.66667 10H5V8.33333H6.66667V10ZM6.66667 6.66667H5V5H6.66667V6.66667ZM6.66667 3.33333H5V1.66667H6.66667V3.33333ZM10 10H8.33333V8.33333H10V10ZM10 6.66667H8.33333V5H10V6.66667ZM10 3.33333H8.33333V1.66667H10V3.33333ZM13.3333 13.3333H11.6667V11.6667H13.3333V13.3333ZM13.3333 10H11.6667V8.33333H13.3333V10Z" fill="#E8595B"/>
</svg>
