<svg width="25" height="19" viewBox="0 0 25 19" fill="none" xmlns="http://www.w3.org/2000/svg">
<path d="M14.9881 7.42213H14.6078V6.67701C14.6078 5.64874 13.7558 4.81421 12.7062 4.81421C11.6565 4.81421 10.8045 5.64874 10.8045 6.67701V7.42213H10.4242C10.0059 7.42213 9.66357 7.75744 9.66357 8.16725V11.8929C9.66357 12.3027 10.0059 12.638 10.4242 12.638H14.9881C15.4064 12.638 15.7487 12.3027 15.7487 11.8929V8.16725C15.7487 7.75744 15.4064 7.42213 14.9881 7.42213ZM12.7062 10.7752C12.2878 10.7752 11.9455 10.4399 11.9455 10.0301C11.9455 9.62024 12.2878 9.28494 12.7062 9.28494C13.1245 9.28494 13.4668 9.62024 13.4668 10.0301C13.4668 10.4399 13.1245 10.7752 12.7062 10.7752ZM13.8852 7.42213H11.5272V6.67701C11.5272 6.03993 12.0558 5.52207 12.7062 5.52207C13.3565 5.52207 13.8852 6.03993 13.8852 6.67701V7.42213Z" fill="#E8595B"/>
<path d="M3.4549 9.06909L0.0629821 9.04547L4.55404 13.5995L9.10809 9.10845L5.71617 9.08484C5.74223 5.34242 8.80483 2.32219 12.5472 2.34824C13.6892 2.3562 14.7726 2.64641 15.7075 3.16174L17.3697 1.5225C15.9852 0.630916 14.3381 0.0993289 12.563 0.0869687C7.56556 0.0521711 3.48969 4.07167 3.4549 9.06909ZM19.2838 9.17931C19.2578 12.9217 16.1952 15.942 12.4528 15.9159C11.3108 15.9079 10.2274 15.6177 9.29249 15.1024L7.63026 16.7416C9.01481 17.6332 10.6619 18.1648 12.437 18.1772C17.4344 18.212 21.5103 14.1925 21.5451 9.19505L24.937 9.21867L20.446 4.66463L15.8919 9.15569L19.2838 9.17931Z" fill="#E8595B"/>
</svg>
