<svg width="15" height="15" viewBox="0 0 15 15" fill="none" xmlns="http://www.w3.org/2000/svg">
<g clip-path="url(#clip0_509_14)">
<path d="M7.5 14C11.0899 14 14 11.0899 14 7.5C14 3.91015 11.0899 1 7.5 1C3.91015 1 1 3.91015 1 7.5C1 11.0899 3.91015 14 7.5 14Z" stroke="#E8595B" stroke-width="2"/>
<path d="M7.5 11.5C8.0523 11.5 8.5 11.0523 8.5 10.5C8.5 9.94772 8.0523 9.5 7.5 9.5C6.94772 9.5 6.5 9.94772 6.5 10.5C6.5 11.0523 6.94772 11.5 7.5 11.5Z" fill="#EB3223"/>
<path d="M6.5 3.5H8.5V8.5H6.5V3.5Z" fill="#EB3223"/>
</g>
<defs>
<clipPath id="clip0_509_14">
<rect width="15" height="15" fill="white"/>
</clipPath>
</defs>
</svg>
