<svg width="16" height="16" viewBox="0 0 16 16" fill="none" xmlns="http://www.w3.org/2000/svg">
<mask id="path-1-inside-1_962_1216" fill="white">
<path d="M7.96964 0C6.65903 -1.56289e-08 5.36864 0.323225 4.21278 0.941045C3.05692 1.55886 2.07127 2.45221 1.34313 3.54195C0.614988 4.63168 0.166839 5.88417 0.038376 7.18848C-0.0900868 8.49278 0.105102 9.80864 0.606653 11.0195C1.1082 12.2303 1.90063 13.2988 2.91375 14.1303C3.92687 14.9617 5.12941 15.5305 6.41484 15.7861C7.70027 16.0418 9.02892 15.9766 10.2831 15.5961C11.5373 15.2157 12.6783 14.5318 13.605 13.605L7.96964 7.96964V0Z"/>
</mask>
<path d="M7.96964 0C6.65903 -1.56289e-08 5.36864 0.323225 4.21278 0.941045C3.05692 1.55886 2.07127 2.45221 1.34313 3.54195C0.614988 4.63168 0.166839 5.88417 0.038376 7.18848C-0.0900868 8.49278 0.105102 9.80864 0.606653 11.0195C1.1082 12.2303 1.90063 13.2988 2.91375 14.1303C3.92687 14.9617 5.12941 15.5305 6.41484 15.7861C7.70027 16.0418 9.02892 15.9766 10.2831 15.5961C11.5373 15.2157 12.6783 14.5318 13.605 13.605L7.96964 7.96964V0Z" stroke="#E8595B" stroke-width="2" mask="url(#path-1-inside-1_962_1216)"/>
<path d="M9.19549 0.0297481C10.0811 0.0257976 10.9588 0.197919 11.7784 0.536286C12.5981 0.874653 13.3438 1.37264 13.9728 2.00181C14.6018 2.63098 15.1019 3.37901 15.4444 4.2032C15.787 5.02739 15.9654 5.91159 15.9694 6.80532L9.22585 6.8354L9.19549 0.0297481Z" fill="#E8595B"/>
<path d="M15.9393 7.96964C15.9393 10.0833 15.0996 12.1104 13.605 13.605L7.96964 7.96964H15.9393Z" fill="#E8595B"/>
</svg>
