<svg width="13" height="17" viewBox="0 0 13 17" fill="none" xmlns="http://www.w3.org/2000/svg">
<g clip-path="url(#clip0_508_2)">
<path d="M8.125 0H1.625C0.73125 0 0.00812519 0.73125 0.00812519 1.625L0 14.625C0 15.5188 0.723125 16.25 1.61687 16.25H11.375C12.2688 16.25 13 15.5188 13 14.625V4.875L8.125 0ZM1.625 14.625V1.625H7.3125V5.6875H11.375V14.625H1.625Z" fill="#E8595B"/>
<g clip-path="url(#clip1_508_2)">
<path d="M4 11.5H9" stroke="#E8595B"/>
</g>
<g clip-path="url(#clip2_508_2)">
<path d="M4 9.5H9" stroke="#E8595B"/>
</g>
<g clip-path="url(#clip3_508_2)">
<path d="M4 7.5H9" stroke="#E8595B"/>
</g>
</g>
<defs>
<clipPath id="clip0_508_2">
<rect width="13" height="17" fill="white"/>
</clipPath>
<clipPath id="clip1_508_2">
<rect width="5" height="1" fill="white" transform="translate(4 11)"/>
</clipPath>
<clipPath id="clip2_508_2">
<rect width="5" height="1" fill="white" transform="translate(4 9)"/>
</clipPath>
<clipPath id="clip3_508_2">
<rect width="5" height="1" fill="white" transform="translate(4 7)"/>
</clipPath>
</defs>
</svg>
