<svg width="18" height="15" viewBox="0 0 18 15" fill="none" xmlns="http://www.w3.org/2000/svg">
<path d="M12.8213 8.2168C13.9422 9.0538 14.7277 10.1878 14.7277 11.6998V14.3998H18.0004V11.6998C18.0004 9.7378 15.0795 8.5768 12.8213 8.2168Z" fill="#EB3223"/>
<path d="M11.4544 7.2C13.2626 7.2 14.7271 5.589 14.7271 3.6C14.7271 1.611 13.2626 0 11.4544 0C11.0698 0 10.7098 0.0899998 10.3662 0.216C11.0453 1.143 11.4544 2.322 11.4544 3.6C11.4544 4.878 11.0453 6.057 10.3662 6.984C10.7098 7.11 11.0698 7.2 11.4544 7.2Z" fill="#EB3223"/>
<path d="M6.54519 7.2C8.35337 7.2 9.81792 5.589 9.81792 3.6C9.81792 1.611 8.35337 0 6.54519 0C4.73701 0 3.27246 1.611 3.27246 3.6C3.27246 5.589 4.73701 7.2 6.54519 7.2ZM6.54519 1.8C7.44519 1.8 8.18155 2.61 8.18155 3.6C8.18155 4.59 7.44519 5.4 6.54519 5.4C5.64519 5.4 4.90882 4.59 4.90882 3.6C4.90882 2.61 5.64519 1.8 6.54519 1.8Z" fill="#EB3223"/>
<path d="M6.54545 8.1001C4.36091 8.1001 0 9.3061 0 11.7001V14.4001H13.0909V11.7001C13.0909 9.3061 8.73 8.1001 6.54545 8.1001ZM11.4545 12.6001H1.63636V11.7091C1.8 11.0611 4.33636 9.9001 6.54545 9.9001C8.75455 9.9001 11.2909 11.0611 11.4545 11.7001V12.6001Z" fill="#EB3223"/>
</svg>
