<svg width="24" height="23" viewBox="0 0 24 23" fill="none" xmlns="http://www.w3.org/2000/svg">
<g clip-path="url(#clip0_509_16)">
<path d="M1.41211 1.64111C1.41211 1.08883 1.85982 0.641113 2.41211 0.641113H21.5886C22.1409 0.641113 22.5886 1.08883 22.5886 1.64111V4.70496H1.41211V1.64111Z" fill="#E8595B"/>
<path d="M22.984 4.95508H1.01596C0.592932 4.95508 0.25 5.29801 0.25 5.72104C0.25 6.14407 0.592932 6.487 1.01596 6.487H22.984C23.4071 6.487 23.75 6.14407 23.75 5.72104C23.75 5.29801 23.4071 4.95508 22.984 4.95508Z" stroke="black" stroke-opacity="0.4" stroke-width="0.5"/>
<path d="M1.41211 6.73706H12.3533H22.5886V13.8488V22.9924H10.5886H1.41211V6.73706Z" fill="#E8595B"/>
<path d="M4.48535 11.1235C4.48535 10.7093 4.82114 10.3735 5.23535 10.3735H11.0001C11.4143 10.3735 11.7501 10.7093 11.7501 11.1235V22.7424H4.48535V11.1235Z" stroke="black" stroke-opacity="0.4" stroke-width="0.5"/>
<path d="M5.64746 14.6259C5.64746 13.2614 6.75358 12.1553 8.11805 12.1553C9.48252 12.1553 10.5886 13.2614 10.5886 14.6259V20.9603H5.64746V14.6259Z" fill="white"/>
<path d="M20.4709 10.1235H13.4121V20.9604H20.4709V10.1235Z" fill="white"/>
<path d="M19.7642 13.51H14.1172V14.1873H19.7642V13.51Z" fill="#E8595B"/>
<path d="M19.7642 16.2192H14.1172V16.8965H19.7642V16.2192Z" fill="#E8595B"/>
<path d="M19.7642 18.9287H14.1172V19.606H19.7642V18.9287Z" fill="#E8595B"/>
<path d="M19.845 9.1688C21.2165 10.6819 22.245 9.79925 22.5879 9.1688L20.5307 6.73706H18.8165M19.845 9.1688L18.8165 6.73706M19.845 9.1688C19.3879 9.79925 18.1307 10.6819 16.7593 9.1688M18.8165 6.73706H16.7593M16.7593 9.1688V6.73706M16.7593 9.1688C16.1879 9.88931 14.7707 10.898 13.6736 9.1688M16.7593 6.73706H14.5307M13.6736 9.1688L14.5307 6.73706M13.6736 9.1688C12.7593 9.70918 10.8622 10.4657 10.5879 9.1688L12.3022 6.73706H14.5307" stroke="black" stroke-opacity="0.4" stroke-width="0.5"/>
<g clip-path="url(#clip1_509_16)">
<path d="M7.91207 3.7309C7.77207 3.7309 7.64607 3.7069 7.53407 3.6589C7.42207 3.6089 7.33407 3.5389 7.27007 3.4489C7.20607 3.3589 7.17407 3.2539 7.17407 3.1339H7.54007C7.54807 3.2239 7.58307 3.2979 7.64507 3.3559C7.70907 3.4139 7.79807 3.4429 7.91207 3.4429C8.03007 3.4429 8.12207 3.4149 8.18807 3.3589C8.25407 3.3009 8.28707 3.2269 8.28707 3.1369C8.28707 3.0669 8.26607 3.0099 8.22407 2.9659C8.18407 2.9219 8.13307 2.8879 8.07107 2.8639C8.01107 2.8399 7.92707 2.8139 7.81907 2.7859C7.68307 2.7499 7.57207 2.7139 7.48607 2.6779C7.40207 2.6399 7.33007 2.5819 7.27007 2.5039C7.21007 2.4259 7.18007 2.3219 7.18007 2.1919C7.18007 2.0719 7.21007 1.9669 7.27007 1.8769C7.33007 1.7869 7.41407 1.7179 7.52207 1.6699C7.63007 1.6219 7.75507 1.5979 7.89707 1.5979C8.09907 1.5979 8.26407 1.6489 8.39207 1.7509C8.52207 1.8509 8.59407 1.9889 8.60807 2.1649H8.23007C8.22407 2.0889 8.18807 2.0239 8.12207 1.9699C8.05607 1.9159 7.96907 1.8889 7.86107 1.8889C7.76307 1.8889 7.68307 1.9139 7.62107 1.9639C7.55907 2.0139 7.52807 2.0859 7.52807 2.1799C7.52807 2.2439 7.54707 2.2969 7.58507 2.3389C7.62507 2.3789 7.67507 2.4109 7.73507 2.4349C7.79507 2.4589 7.87707 2.4849 7.98107 2.5129C8.11907 2.5509 8.23107 2.5889 8.31707 2.6269C8.40507 2.6649 8.47907 2.7239 8.53907 2.8039C8.60107 2.8819 8.63207 2.9869 8.63207 3.1189C8.63207 3.2249 8.60307 3.3249 8.54507 3.4189C8.48907 3.5129 8.40607 3.5889 8.29607 3.6469C8.18807 3.7029 8.06007 3.7309 7.91207 3.7309ZM10.3826 1.6249V1.9039H9.82762V3.7099H9.48562V1.9039H8.92762V1.6249H10.3826ZM11.68 3.7309C11.486 3.7309 11.307 3.6859 11.143 3.5959C10.981 3.5039 10.852 3.3769 10.756 3.2149C10.662 3.0509 10.615 2.8669 10.615 2.6629C10.615 2.4589 10.662 2.2759 10.756 2.1139C10.852 1.9519 10.981 1.8259 11.143 1.7359C11.307 1.6439 11.486 1.5979 11.68 1.5979C11.876 1.5979 12.055 1.6439 12.217 1.7359C12.381 1.8259 12.51 1.9519 12.604 2.1139C12.698 2.2759 12.745 2.4589 12.745 2.6629C12.745 2.8669 12.698 3.0509 12.604 3.2149C12.51 3.3769 12.381 3.5039 12.217 3.5959C12.055 3.6859 11.876 3.7309 11.68 3.7309ZM11.68 3.4339C11.818 3.4339 11.941 3.4029 12.049 3.3409C12.157 3.2769 12.241 3.1869 12.301 3.0709C12.363 2.9529 12.394 2.8169 12.394 2.6629C12.394 2.5089 12.363 2.3739 12.301 2.2579C12.241 2.1419 12.157 2.0529 12.049 1.9909C11.941 1.9289 11.818 1.8979 11.68 1.8979C11.542 1.8979 11.419 1.9289 11.311 1.9909C11.203 2.0529 11.118 2.1419 11.056 2.2579C10.996 2.3739 10.966 2.5089 10.966 2.6629C10.966 2.8169 10.996 2.9529 11.056 3.0709C11.118 3.1869 11.203 3.2769 11.311 3.3409C11.419 3.4029 11.542 3.4339 11.68 3.4339ZM14.1645 3.7099L13.6845 2.8759H13.4235V3.7099H13.0815V1.6249H13.8015C13.9615 1.6249 14.0965 1.6529 14.2065 1.7089C14.3185 1.7649 14.4015 1.8399 14.4555 1.9339C14.5115 2.0279 14.5395 2.1329 14.5395 2.2489C14.5395 2.3849 14.4995 2.5089 14.4195 2.6209C14.3415 2.7309 14.2205 2.8059 14.0565 2.8459L14.5725 3.7099H14.1645ZM13.4235 2.6029H13.8015C13.9295 2.6029 14.0255 2.5709 14.0895 2.5069C14.1555 2.4429 14.1885 2.3569 14.1885 2.2489C14.1885 2.1409 14.1565 2.0569 14.0925 1.9969C14.0285 1.9349 13.9315 1.9039 13.8015 1.9039H13.4235V2.6029ZM15.319 1.9009V2.5129H16.039V2.7919H15.319V3.4309H16.129V3.7099H14.977V1.6219H16.129V1.9009H15.319Z" fill="white"/>
</g>
</g>
<defs>
<clipPath id="clip0_509_16">
<rect width="24" height="23" fill="white"/>
</clipPath>
<clipPath id="clip1_509_16">
<rect width="10" height="3" fill="white" transform="translate(7 1)"/>
</clipPath>
</defs>
</svg>
