<svg width="13" height="17" viewBox="0 0 13 17" fill="none" xmlns="http://www.w3.org/2000/svg">
<g clip-path="url(#clip0_509_36)">
<path d="M6.41669 0C2.86916 0 0 2.64846 0 5.92308C0 10.3654 6.41669 16.9231 6.41669 16.9231C6.41669 16.9231 12.8333 10.3654 12.8333 5.92308C12.8333 2.64846 9.96419 0 6.41669 0ZM1.83333 5.92308C1.83333 3.5877 3.88666 1.69231 6.41669 1.69231C8.94669 1.69231 11 3.5877 11 5.92308C11 8.36002 8.35999 12.0069 6.41669 14.2831C4.51 12.0238 1.83333 8.33462 1.83333 5.92308Z" fill="#E8595B"/>
<path d="M6.41669 8.03839C7.68229 8.03839 8.70829 7.0913 8.70829 5.923C8.70829 4.75471 7.68229 3.80762 6.41669 3.80762C5.15101 3.80762 4.125 4.75471 4.125 5.923C4.125 7.0913 5.15101 8.03839 6.41669 8.03839Z" fill="#E8595B"/>
</g>
<defs>
<clipPath id="clip0_509_36">
<rect width="12.83" height="16.92" fill="white"/>
</clipPath>
</defs>
</svg>
