<svg width="21" height="25" viewBox="0 0 21 25" fill="none" xmlns="http://www.w3.org/2000/svg">
<rect y="14.01" width="13.2222" height="10.0434" fill="#E8595B"/>
<rect x="7" y="5.33618" width="14" height="9.13037" fill="#E8595B"/>
<rect x="12.4443" y="14.01" width="8.55553" height="10.0434" fill="#E8595B"/>
<rect x="10.1113" y="7.6189" width="3.1111" height="1.82607" fill="white"/>
<rect x="10.1113" y="9.90137" width="3.1111" height="1.82607" fill="white"/>
<rect x="10.1113" y="12.1838" width="3.1111" height="1.82607" fill="white"/>
<rect x="14.7783" y="7.6189" width="3.1111" height="1.82607" fill="white"/>
<rect x="14.7783" y="9.90137" width="3.1111" height="1.82607" fill="white"/>
<rect x="14.7783" y="16.749" width="3.1111" height="1.82607" fill="white"/>
<rect x="14.7783" y="12.1838" width="3.1111" height="1.82607" fill="white"/>
<rect x="14.7783" y="19.0317" width="3.1111" height="1.82607" fill="white"/>
<rect x="14.7783" y="14.4666" width="3.1111" height="1.82607" fill="white"/>
<rect x="2.33301" y="15.3796" width="8.55553" height="0.913037" rx="0.456518" fill="white"/>
<rect x="2.33301" y="17.6621" width="8.55553" height="0.913037" rx="0.456518" fill="white"/>
<rect x="2.33301" y="19.9448" width="8.55553" height="0.913037" rx="0.456518" fill="white"/>
<rect x="7.77734" y="2.59692" width="12.4444" height="2.28259" fill="#E8595B"/>
<rect x="14" y="0.770996" width="0.777776" height="1.82607" fill="#E8595B"/>
</svg>
