<svg width="14" height="14" viewBox="0 0 14 14" fill="none" xmlns="http://www.w3.org/2000/svg">
<path d="M7 1.75C7.9625 1.75 8.75 2.5375 8.75 3.5C8.75 4.4625 7.9625 5.25 7 5.25C6.0375 5.25 5.25 4.4625 5.25 3.5C5.25 2.5375 6.0375 1.75 7 1.75ZM7 10.5C9.3625 10.5 12.075 11.6287 12.25 12.25H1.75C1.95125 11.62 4.64625 10.5 7 10.5ZM7 0C5.06625 0 3.5 1.56625 3.5 3.5C3.5 5.43375 5.06625 7 7 7C8.93375 7 10.5 5.43375 10.5 3.5C10.5 1.56625 8.93375 0 7 0ZM7 8.75C4.66375 8.75 0 9.9225 0 12.25V14H14V12.25C14 9.9225 9.33625 8.75 7 8.75Z" fill="#E8595B"/>
</svg>
