<svg width="47" height="46" viewBox="0 0 47 46" fill="none" xmlns="http://www.w3.org/2000/svg">
<path d="M1.90789 11.7499C1.14534 11.3887 1.14534 10.3036 1.90789 9.94242L22.4801 0.197686C22.7449 0.0722591 23.0514 0.0692677 23.3186 0.189502L44.9735 9.93423C45.7597 10.288 45.7597 11.4043 44.9735 11.7581L34.9487 16.2692L23.3186 21.5028C23.0514 21.623 22.7449 21.62 22.4801 21.4946L1.90789 11.7499Z" fill="#E8595B"/>
<path d="M6.10035 19.1808C6.40324 18.9867 6.78701 18.9703 7.10536 19.1378L24.6872 28.387C25.1759 28.6442 25.3637 29.2488 25.1066 29.7376L23.6027 32.5964C23.3448 33.0866 22.7375 33.2738 22.2484 33.0139L3.12914 22.8543C2.45367 22.4954 2.41487 21.5418 3.05895 21.1292L6.10035 19.1808Z" fill="#E8595B"/>
<path d="M6.10035 19.1808C6.40324 18.9867 6.78701 18.9703 7.10536 19.1378L24.6872 28.387C25.1759 28.6442 25.3637 29.2488 25.1066 29.7376L23.6027 32.5964C23.3448 33.0866 22.7375 33.2738 22.2484 33.0139L3.12914 22.8543C2.45367 22.4954 2.41487 21.5418 3.05895 21.1292L6.10035 19.1808Z" fill="#E8595B"/>
<path d="M6.33668 30.6349C6.63957 30.4408 7.02334 30.4244 7.34169 30.5919L24.9235 39.8411C25.4123 40.0983 25.6 40.7029 25.3429 41.1917L23.839 44.0505C23.5811 44.5407 22.9739 44.7279 22.4847 44.468L3.36547 34.3084C2.68999 33.9495 2.6512 32.9959 3.29528 32.5833L6.33668 30.6349Z" fill="#E8595B"/>
<path d="M6.33668 30.6349C6.63957 30.4408 7.02334 30.4244 7.34169 30.5919L24.9235 39.8411C25.4123 40.0983 25.6 40.7029 25.3429 41.1917L23.839 44.0505C23.5811 44.5407 22.9739 44.7279 22.4847 44.468L3.36547 34.3084C2.68999 33.9495 2.6512 32.9959 3.29528 32.5833L6.33668 30.6349Z" fill="#E8595B"/>
<path d="M40.3446 19.4828C40.0544 19.333 39.7094 19.3344 39.4205 19.4864L21.4643 28.9326C20.945 29.2058 20.7714 29.8652 21.0888 30.3586L22.5552 32.6382C22.8293 33.0643 23.3788 33.2181 23.8343 32.9962L44.0027 23.1687C44.7424 22.8082 44.7545 21.7584 44.0232 21.3811L40.3446 19.4828Z" fill="#E8595B"/>
<path d="M40.3446 19.4828C40.0544 19.333 39.7094 19.3344 39.4205 19.4864L21.4643 28.9326C20.945 29.2058 20.7714 29.8652 21.0888 30.3586L22.5552 32.6382C22.8293 33.0643 23.3788 33.2181 23.8343 32.9962L44.0027 23.1687C44.7424 22.8082 44.7545 21.7584 44.0232 21.3811L40.3446 19.4828Z" fill="#E8595B"/>
<path d="M40.5819 30.9369C40.2917 30.7871 39.9467 30.7885 39.6578 30.9405L21.7016 40.3867C21.1823 40.6599 21.0087 41.3193 21.3261 41.8127L22.7925 44.0923C23.0666 44.5184 23.6161 44.6722 24.0716 44.4503L44.24 34.6228C44.9798 34.2623 44.9918 33.2125 44.2606 32.8352L40.5819 30.9369Z" fill="#E8595B"/>
<path d="M40.5819 30.9369C40.2917 30.7871 39.9467 30.7885 39.6578 30.9405L21.7016 40.3867C21.1823 40.6599 21.0087 41.3193 21.3261 41.8127L22.7925 44.0923C23.0666 44.5184 23.6161 44.6722 24.0716 44.4503L44.24 34.6228C44.9798 34.2623 44.9918 33.2125 44.2606 32.8352L40.5819 30.9369Z" fill="#E8595B"/>
</svg>
