<svg width="308" height="139" viewBox="0 0 308 139" fill="none" xmlns="http://www.w3.org/2000/svg">
<path d="M6.49533 99.7979V36.3329H14.6604V92.1895H30.3411V99.7979H6.49533ZM39.1093 44.034C37.934 44.034 36.9288 43.6165 36.0938 42.7814C35.2587 41.9464 34.8412 40.9412 34.8412 39.7659C34.8412 38.5597 35.2587 37.5545 36.0938 36.7504C36.9288 35.9153 37.934 35.4978 39.1093 35.4978C40.2846 35.4978 41.2897 35.9153 42.1248 36.7504C42.9599 37.5545 43.3774 38.5597 43.3774 39.7659C43.3774 40.9412 42.9599 41.9464 42.1248 42.7814C41.2897 43.6165 40.2846 44.034 39.1093 44.034ZM35.3979 99.7979V57.7198H42.8207V99.7979H35.3979ZM78.0326 92.0039V97.6174C75.713 99.6896 73.7954 100.726 72.2799 100.726C69.5273 100.726 67.718 98.9628 66.852 95.437C64.1303 99.1174 61.4396 100.958 58.7797 100.958C56.5838 100.958 54.6508 99.9061 52.9806 97.803C51.3414 95.6689 50.5218 93.1637 50.5218 90.2874C50.5218 86.978 51.6817 84.1636 54.0013 81.8439C56.3209 79.5243 60.5117 76.617 66.5737 73.1221V69.086C66.5737 65.4364 65.1046 63.6117 62.1664 63.6117C59.1663 63.6117 55.625 65.9158 51.5425 70.5242V61.9879C55.3157 58.3693 59.0581 56.56 62.7695 56.56C65.8623 56.56 68.4912 57.5806 70.6562 59.6219C72.8521 61.6632 73.9501 64.4158 73.9501 67.8798V91.6328C73.9501 93.272 74.3367 94.0916 75.1099 94.0916C75.5738 94.0916 76.5481 93.3957 78.0326 92.0039ZM66.5737 89.0812V78.2253C60.7282 81.7512 57.8055 85.4007 57.8055 89.174C57.8055 90.5657 58.1457 91.7101 58.8261 92.607C59.5065 93.473 60.3725 93.906 61.4241 93.906C62.7231 93.906 63.8984 93.2101 64.9499 91.8183C66.0324 90.3956 66.5737 89.4832 66.5737 89.0812ZM81.744 97.5246V89.3595C84.4966 92.3905 86.94 93.906 89.074 93.906C90.1256 93.906 91.0071 93.5658 91.7184 92.8854C92.4298 92.2049 92.7854 91.3389 92.7854 90.2874C92.7854 88.3698 91.3782 85.3234 88.5637 81.1481C85.7802 76.9727 84.0327 73.8954 83.3214 71.9159C82.61 69.9056 82.2543 68.0808 82.2543 66.4416C82.2543 63.5962 83.1049 61.2457 84.8059 59.39C86.5379 57.5033 88.7184 56.56 91.3473 56.56C93.7288 56.56 96.0793 57.4569 98.3989 59.2508V66.256C95.9865 64.3076 93.8679 63.3333 92.0432 63.3333C90.0637 63.3333 89.074 64.3694 89.074 66.4416C89.074 68.2045 90.5122 71.1118 93.3885 75.1634C96.2958 79.1841 98.1361 82.246 98.9093 84.3491C99.7134 86.4213 100.115 88.3389 100.115 90.1018C100.115 93.2256 99.1567 95.8236 97.2391 97.8958C95.3216 99.937 92.9246 100.958 90.0483 100.958C87.3266 100.958 84.5585 99.8133 81.744 97.5246ZM128.229 89.9162V97.2463C125.6 99.7205 122.709 100.958 119.554 100.958C115.286 100.958 111.976 99.0401 109.626 95.205C107.275 91.3699 106.1 85.8646 106.1 78.6892C106.1 71.6994 107.121 66.2715 109.162 62.4055C111.234 58.5085 114.111 56.56 117.791 56.56C125.461 56.56 129.219 64.5086 129.064 80.4058H113.477C113.477 89.5296 115.982 94.0916 120.992 94.0916C123.714 94.0916 126.126 92.6998 128.229 89.9162ZM113.384 74.8851H121.688C121.688 66.9674 120.25 63.0086 117.373 63.0086C114.714 63.0086 113.384 66.9674 113.384 74.8851ZM135.281 97.5246V89.3595C138.034 92.3905 140.477 93.906 142.611 93.906C143.663 93.906 144.544 93.5658 145.255 92.8854C145.967 92.2049 146.322 91.3389 146.322 90.2874C146.322 88.3698 144.915 85.3234 142.101 81.1481C139.317 76.9727 137.57 73.8954 136.858 71.9159C136.147 69.9056 135.791 68.0808 135.791 66.4416C135.791 63.5962 136.642 61.2457 138.343 59.39C140.075 57.5033 142.255 56.56 144.884 56.56C147.266 56.56 149.616 57.4569 151.936 59.2508V66.256C149.524 64.3076 147.405 63.3333 145.58 63.3333C143.601 63.3333 142.611 64.3694 142.611 66.4416C142.611 68.2045 144.049 71.1118 146.926 75.1634C149.833 79.1841 151.673 82.246 152.446 84.3491C153.25 86.4213 153.652 88.3389 153.652 90.1018C153.652 93.2256 152.694 95.8236 150.776 97.8958C148.859 99.937 146.462 100.958 143.585 100.958C140.864 100.958 138.095 99.8133 135.281 97.5246Z" fill="#2B2A29"/>
<path d="M174.461 99.7979V36.3329H194.224V43.9412H182.626V62.823H193.436V70.4314H182.626V99.7979H174.461ZM212.364 100.958C208.312 100.958 205.096 98.9937 202.714 95.0658C200.364 91.107 199.188 85.6791 199.188 78.782C199.188 71.885 200.364 66.4571 202.714 62.4983C205.096 58.5394 208.312 56.56 212.364 56.56C216.415 56.56 219.632 58.5394 222.013 62.4983C224.395 66.4571 225.586 71.885 225.586 78.782C225.586 85.6791 224.395 91.107 222.013 95.0658C219.632 98.9937 216.415 100.958 212.364 100.958ZM212.271 63.6117C208.591 63.6117 206.75 68.6685 206.75 78.782C206.75 88.8647 208.652 93.906 212.457 93.906C216.137 93.906 217.977 88.8647 217.977 78.782C217.977 68.6685 216.075 63.6117 212.271 63.6117ZM233.612 99.7979V57.7198H241.034V69.086H241.22C242.705 64.0756 243.926 60.8127 244.885 59.2972C245.875 57.7817 247.251 57.0239 249.014 57.0239C250.375 57.0239 251.643 57.4415 252.818 58.2765L252.261 65.8849C251.241 65.1736 250.158 64.8179 249.014 64.8179C246.694 64.8179 244.777 66.9055 243.261 71.0809C241.777 75.2562 241.034 79.2614 241.034 83.0965V99.7979H233.612ZM283.112 92.0039V97.6174C280.793 99.6896 278.875 100.726 277.36 100.726C274.607 100.726 272.798 98.9628 271.932 95.437C269.21 99.1174 266.519 100.958 263.86 100.958C261.664 100.958 259.731 99.9061 258.06 97.803C256.421 95.6689 255.602 93.1637 255.602 90.2874C255.602 86.978 256.762 84.1636 259.081 81.8439C261.401 79.5243 265.592 76.617 271.654 73.1221V69.086C271.654 65.4364 270.184 63.6117 267.246 63.6117C264.246 63.6117 260.705 65.9158 256.622 70.5242V61.9879C260.396 58.3693 264.138 56.56 267.849 56.56C270.942 56.56 273.571 57.5806 275.736 59.6219C277.932 61.6632 279.03 64.4158 279.03 67.8798V91.6328C279.03 93.272 279.417 94.0916 280.19 94.0916C280.654 94.0916 281.628 93.3957 283.112 92.0039ZM271.654 89.0812V78.2253C265.808 81.7512 262.885 85.4007 262.885 89.174C262.885 90.5657 263.226 91.7101 263.906 92.607C264.586 93.473 265.452 93.906 266.504 93.906C267.803 93.906 268.978 93.2101 270.03 91.8183C271.112 90.3956 271.654 89.4832 271.654 89.0812ZM286.824 97.5246V89.3595C289.576 92.3905 292.02 93.906 294.154 93.906C295.205 93.906 296.087 93.5658 296.798 92.8854C297.51 92.2049 297.865 91.3389 297.865 90.2874C297.865 88.3698 296.458 85.3234 293.644 81.1481C290.86 76.9727 289.113 73.8954 288.401 71.9159C287.69 69.9056 287.334 68.0808 287.334 66.4416C287.334 63.5962 288.185 61.2457 289.886 59.39C291.618 57.5033 293.798 56.56 296.427 56.56C298.809 56.56 301.159 57.4569 303.479 59.2508V66.256C301.066 64.3076 298.948 63.3333 297.123 63.3333C295.144 63.3333 294.154 64.3694 294.154 66.4416C294.154 68.2045 295.592 71.1118 298.468 75.1634C301.376 79.1841 303.216 82.246 303.989 84.3491C304.793 86.4213 305.195 88.3389 305.195 90.1018C305.195 93.2256 304.237 95.8236 302.319 97.8958C300.401 99.937 298.004 100.958 295.128 100.958C292.406 100.958 289.638 99.8133 286.824 97.5246Z" fill="#2B2A29"/>
<path fill-rule="evenodd" clip-rule="evenodd" d="M114.915 0.492873L165.183 50.7228H145.643L114.877 19.9952L88.3449 46.5275L78.6693 36.8141L63.3622 52.1212L53.5732 42.37L78.9717 16.9338L88.6851 26.6472L114.839 0.492873L114.877 0.455078L114.915 0.492873Z" fill="#E31E24"/>
<path d="M6.38417 131.165V115.074H8.11321C9.49331 115.074 10.5441 115.482 11.2655 116.297C11.9947 117.105 12.3594 118.183 12.3594 119.532C12.3594 121.061 11.8026 122.21 10.6891 122.978C11.5517 123.59 12.2849 125.217 12.8887 127.859L13.6297 131.165H11.4654L10.8421 128.389C10.3951 126.444 10.0069 125.209 9.67759 124.684C9.34825 124.15 8.94049 123.911 8.45432 123.966V131.165H6.38417ZM8.45432 122.037H8.54842C9.70896 122.037 10.2892 121.225 10.2892 119.602C10.2892 117.877 9.67759 117.011 8.45432 117.003V122.037ZM20.193 128.659V130.518C19.5265 131.145 18.7933 131.459 17.9935 131.459C16.9114 131.459 16.0723 130.972 15.4764 130C14.8804 129.028 14.5824 127.632 14.5824 125.813C14.5824 124.041 14.8412 122.664 15.3587 121.684C15.8841 120.696 16.6134 120.202 17.5465 120.202C19.4912 120.202 20.4439 122.217 20.4047 126.248H16.4526C16.4526 128.561 17.0878 129.718 18.3581 129.718C19.0482 129.718 19.6598 129.365 20.193 128.659ZM16.4291 124.848H18.5345C18.5345 122.841 18.1699 121.837 17.4407 121.837C16.7663 121.837 16.4291 122.841 16.4291 124.848ZM29.0617 129.188V130.612C28.4736 131.137 27.9875 131.4 27.6032 131.4C26.9053 131.4 26.4466 130.953 26.227 130.059C25.537 130.992 24.8548 131.459 24.1804 131.459C23.6237 131.459 23.1336 131.192 22.7101 130.659C22.2945 130.118 22.0867 129.483 22.0867 128.753C22.0867 127.914 22.3808 127.201 22.9689 126.613C23.557 126.024 24.6195 125.287 26.1565 124.401V123.378C26.1565 122.453 25.784 121.99 25.0391 121.99C24.2784 121.99 23.3806 122.574 22.3455 123.743V121.578C23.3022 120.661 24.251 120.202 25.192 120.202C25.9761 120.202 26.6426 120.461 27.1915 120.978C27.7483 121.496 28.0267 122.194 28.0267 123.072V129.094C28.0267 129.51 28.1247 129.718 28.3207 129.718C28.4383 129.718 28.6853 129.541 29.0617 129.188ZM26.1565 128.447V125.695C24.6744 126.589 23.9334 127.514 23.9334 128.471C23.9334 128.824 24.0197 129.114 24.1922 129.341C24.3647 129.561 24.5842 129.671 24.8509 129.671C25.1802 129.671 25.4782 129.494 25.7448 129.141C26.0192 128.781 26.1565 128.549 26.1565 128.447ZM30.3909 131.165V115.074H32.2728V131.165H30.3909ZM42.7765 131.165V115.074H48.5047V117.003H44.8466V121.814H48.1989V123.743H44.8466V129.236H48.7047V131.165H42.7765ZM50.8219 130.588V128.518C51.5197 129.287 52.1392 129.671 52.6803 129.671C52.9469 129.671 53.1704 129.584 53.3507 129.412C53.5311 129.239 53.6213 129.02 53.6213 128.753C53.6213 128.267 53.2645 127.495 52.5509 126.436C51.8452 125.378 51.4021 124.597 51.2218 124.095C51.0414 123.586 50.9512 123.123 50.9512 122.708C50.9512 121.986 51.1669 121.39 51.5982 120.92C52.0373 120.441 52.5901 120.202 53.2566 120.202C53.8604 120.202 54.4564 120.43 55.0445 120.884V122.66C54.4329 122.166 53.8957 121.919 53.4331 121.919C52.9312 121.919 52.6803 122.182 52.6803 122.708C52.6803 123.154 53.0449 123.892 53.7742 124.919C54.5113 125.938 54.9778 126.715 55.1739 127.248C55.3778 127.773 55.4797 128.259 55.4797 128.706C55.4797 129.498 55.2366 130.157 54.7504 130.682C54.2643 131.2 53.6565 131.459 52.9273 131.459C52.2372 131.459 51.5354 131.168 50.8219 130.588ZM61.4196 129.377V131.047C60.7845 131.321 60.2316 131.459 59.7611 131.459C58.4438 131.459 57.7851 130.663 57.7851 129.071V122.131H56.5618V121.966C57.4557 120.877 58.4359 119.469 59.5024 117.744H59.667V120.496H61.4196V122.131H59.667V128.224C59.667 128.789 59.718 129.173 59.82 129.377C59.9297 129.573 60.1258 129.671 60.4081 129.671C60.6668 129.671 61.004 129.573 61.4196 129.377ZM69.4532 129.188V130.612C68.8651 131.137 68.3789 131.4 67.9947 131.4C67.2968 131.4 66.8381 130.953 66.6185 130.059C65.9285 130.992 65.2463 131.459 64.5719 131.459C64.0151 131.459 63.5251 131.192 63.1016 130.659C62.686 130.118 62.4782 129.483 62.4782 128.753C62.4782 127.914 62.7723 127.201 63.3604 126.613C63.9485 126.024 65.011 125.287 66.5479 124.401V123.378C66.5479 122.453 66.1755 121.99 65.4305 121.99C64.6699 121.99 63.7721 122.574 62.737 123.743V121.578C63.6936 120.661 64.6425 120.202 65.5834 120.202C66.3676 120.202 67.0341 120.461 67.583 120.978C68.1398 121.496 68.4181 122.194 68.4181 123.072V129.094C68.4181 129.51 68.5162 129.718 68.7122 129.718C68.8298 129.718 69.0768 129.541 69.4532 129.188ZM66.5479 128.447V125.695C65.0659 126.589 64.3249 127.514 64.3249 128.471C64.3249 128.824 64.4111 129.114 64.5837 129.341C64.7562 129.561 64.9757 129.671 65.2423 129.671C65.5717 129.671 65.8697 129.494 66.1363 129.141C66.4107 128.781 66.5479 128.549 66.5479 128.447ZM74.9697 129.377V131.047C74.3345 131.321 73.7817 131.459 73.3112 131.459C71.9939 131.459 71.3352 130.663 71.3352 129.071V122.131H70.1119V121.966C71.0058 120.877 71.986 119.469 73.0525 117.744H73.2171V120.496H74.9697V122.131H73.2171V128.224C73.2171 128.789 73.2681 129.173 73.37 129.377C73.4798 129.573 73.6759 129.671 73.9581 129.671C74.2169 129.671 74.5541 129.573 74.9697 129.377ZM81.6859 128.659V130.518C81.0194 131.145 80.2862 131.459 79.4864 131.459C78.4043 131.459 77.5652 130.972 76.9693 130C76.3733 129.028 76.0753 127.632 76.0753 125.813C76.0753 124.041 76.3341 122.664 76.8517 121.684C77.377 120.696 78.1063 120.202 79.0394 120.202C80.9841 120.202 81.9369 122.217 81.8976 126.248H77.9455C77.9455 128.561 78.5807 129.718 79.851 129.718C80.5411 129.718 81.1527 129.365 81.6859 128.659ZM77.922 124.848H80.0275C80.0275 122.841 79.6628 121.837 78.9336 121.837C78.2592 121.837 77.922 122.841 77.922 124.848ZM92.2484 131.165V115.074H93.9775C95.3576 115.074 96.4083 115.482 97.1297 116.297C97.859 117.105 98.2236 118.183 98.2236 119.532C98.2236 121.061 97.6669 122.21 96.5534 122.978C97.4159 123.59 98.1491 125.217 98.7529 127.859L99.4939 131.165H97.3297L96.7063 128.389C96.2593 126.444 95.8712 125.209 95.5418 124.684C95.2125 124.15 94.8047 123.911 94.3186 123.966V131.165H92.2484ZM94.3186 122.037H94.4127C95.5732 122.037 96.1535 121.225 96.1535 119.602C96.1535 117.877 95.5418 117.011 94.3186 117.003V122.037ZM107.375 129.188V130.612C106.787 131.137 106.3 131.4 105.916 131.4C105.218 131.4 104.759 130.953 104.54 130.059C103.85 130.992 103.168 131.459 102.493 131.459C101.937 131.459 101.446 131.192 101.023 130.659C100.607 130.118 100.4 129.483 100.4 128.753C100.4 127.914 100.694 127.201 101.282 126.613C101.87 126.024 102.932 125.287 104.469 124.401V123.378C104.469 122.453 104.097 121.99 103.352 121.99C102.591 121.99 101.693 122.574 100.658 123.743V121.578C101.615 120.661 102.564 120.202 103.505 120.202C104.289 120.202 104.956 120.461 105.504 120.978C106.061 121.496 106.34 122.194 106.34 123.072V129.094C106.34 129.51 106.438 129.718 106.634 129.718C106.751 129.718 106.998 129.541 107.375 129.188ZM104.469 128.447V125.695C102.987 126.589 102.246 127.514 102.246 128.471C102.246 128.824 102.333 129.114 102.505 129.341C102.678 129.561 102.897 129.671 103.164 129.671C103.493 129.671 103.791 129.494 104.058 129.141C104.332 128.781 104.469 128.549 104.469 128.447ZM112.891 129.377V131.047C112.256 131.321 111.703 131.459 111.233 131.459C109.915 131.459 109.257 130.663 109.257 129.071V122.131H108.033V121.966C108.927 120.877 109.907 119.469 110.974 117.744H111.139V120.496H112.891V122.131H111.139V128.224C111.139 128.789 111.19 129.173 111.291 129.377C111.401 129.573 111.597 129.671 111.88 129.671C112.138 129.671 112.476 129.573 112.891 129.377ZM115.314 117.026C115.016 117.026 114.761 116.92 114.55 116.709C114.338 116.497 114.232 116.242 114.232 115.944C114.232 115.638 114.338 115.384 114.55 115.18C114.761 114.968 115.016 114.862 115.314 114.862C115.612 114.862 115.867 114.968 116.079 115.18C116.29 115.384 116.396 115.638 116.396 115.944C116.396 116.242 116.29 116.497 116.079 116.709C115.867 116.92 115.612 117.026 115.314 117.026ZM114.373 131.165V120.496H116.255V131.165H114.373ZM118.608 131.165V120.496H120.49V121.649H120.537C121.062 120.763 121.721 120.32 122.513 120.32C123.218 120.32 123.783 120.598 124.206 121.155C124.638 121.712 124.853 122.488 124.853 123.484V131.165H122.971V123.531C122.971 122.504 122.634 121.99 121.96 121.99C121.583 121.99 121.242 122.186 120.936 122.578C120.639 122.962 120.49 123.19 120.49 123.26V131.165H118.608ZM133.722 122.131H132.311C132.71 122.79 132.91 123.656 132.91 124.731C132.91 127.036 131.915 128.349 129.923 128.671C129.562 128.734 129.307 128.812 129.158 128.906C129.009 128.992 128.935 129.177 128.935 129.459C128.935 129.671 129.009 129.855 129.158 130.012C129.307 130.161 129.888 130.337 130.899 130.541C131.918 130.745 132.64 131.137 133.063 131.717C133.487 132.298 133.698 132.98 133.698 133.764C133.698 134.736 133.353 135.528 132.663 136.14C131.981 136.759 131.091 137.069 129.993 137.069C128.982 137.069 128.139 136.783 127.465 136.211C126.79 135.646 126.453 134.944 126.453 134.105C126.453 132.882 127.065 132.008 128.288 131.482C127.48 131.121 127.076 130.6 127.076 129.918C127.076 129.165 127.574 128.593 128.57 128.2C127.48 127.448 126.935 126.228 126.935 124.542C126.935 123.311 127.214 122.331 127.77 121.602C128.335 120.865 129.107 120.496 130.087 120.496H133.722V122.131ZM129.946 121.919C129.554 121.919 129.237 122.155 128.994 122.625C128.758 123.088 128.641 123.727 128.641 124.542C128.641 125.381 128.754 126.036 128.982 126.507C129.217 126.977 129.539 127.212 129.946 127.212C130.331 127.212 130.632 126.989 130.852 126.542C131.079 126.087 131.193 125.46 131.193 124.66C131.193 123.813 131.079 123.147 130.852 122.66C130.625 122.166 130.323 121.919 129.946 121.919ZM129.946 132.176C129.421 132.176 128.99 132.333 128.652 132.647C128.323 132.96 128.158 133.364 128.158 133.858C128.158 134.344 128.331 134.736 128.676 135.034C129.021 135.332 129.476 135.481 130.04 135.481C130.597 135.481 131.06 135.324 131.428 135.011C131.805 134.697 131.993 134.313 131.993 133.858C131.993 133.395 131.793 132.999 131.393 132.67C130.993 132.341 130.511 132.176 129.946 132.176ZM149.46 131.376L148.86 129.965C148.037 130.906 147.166 131.376 146.249 131.376C145.261 131.376 144.414 130.921 143.708 130.012C143.01 129.094 142.661 127.977 142.661 126.66C142.661 124.754 143.465 123.092 145.073 121.672C144.477 120.355 144.179 119.245 144.179 118.344C144.179 117.403 144.469 116.595 145.049 115.921C145.637 115.246 146.335 114.909 147.143 114.909C147.911 114.909 148.562 115.199 149.095 115.78C149.628 116.352 149.895 117.058 149.895 117.897C149.895 119.261 149.107 120.633 147.531 122.014L149.095 125.695H149.142C149.393 124.676 149.562 123.801 149.648 123.072H151.483C151.334 124.758 150.891 126.405 150.154 128.012L151.695 131.376H149.46ZM146.708 120.296C147.186 119.826 147.539 119.422 147.766 119.085C147.994 118.748 148.107 118.344 148.107 117.873C148.107 117.481 148.013 117.16 147.825 116.909C147.637 116.65 147.401 116.521 147.119 116.521C146.821 116.521 146.57 116.662 146.366 116.944C146.163 117.226 146.061 117.575 146.061 117.991C146.061 118.681 146.276 119.449 146.708 120.296ZM148.013 128.059L145.966 123.531C145.527 124.064 145.21 124.535 145.014 124.942C144.826 125.35 144.731 125.868 144.731 126.495C144.731 127.31 144.892 127.985 145.214 128.518C145.543 129.043 145.947 129.306 146.425 129.306C146.99 129.306 147.519 128.891 148.013 128.059ZM161.504 131.165V115.074H163.233C164.614 115.074 165.664 115.482 166.386 116.297C167.115 117.105 167.48 118.183 167.48 119.532C167.48 121.061 166.923 122.21 165.809 122.978C166.672 123.59 167.405 125.217 168.009 127.859L168.75 131.165H166.586L165.962 128.389C165.515 126.444 165.127 125.209 164.798 124.684C164.468 124.15 164.061 123.911 163.575 123.966V131.165H161.504ZM163.575 122.037H163.669C164.829 122.037 165.409 121.225 165.409 119.602C165.409 117.877 164.798 117.011 163.575 117.003V122.037ZM175.313 128.659V130.518C174.647 131.145 173.914 131.459 173.114 131.459C172.032 131.459 171.193 130.972 170.597 130C170.001 129.028 169.703 127.632 169.703 125.813C169.703 124.041 169.961 122.664 170.479 121.684C171.004 120.696 171.734 120.202 172.667 120.202C174.611 120.202 175.564 122.217 175.525 126.248H171.573C171.573 128.561 172.208 129.718 173.478 129.718C174.168 129.718 174.78 129.365 175.313 128.659ZM171.549 124.848H173.655C173.655 122.841 173.29 121.837 172.561 121.837C171.887 121.837 171.549 122.841 171.549 124.848ZM177.101 130.588V128.518C177.799 129.287 178.418 129.671 178.96 129.671C179.226 129.671 179.45 129.584 179.63 129.412C179.81 129.239 179.901 129.02 179.901 128.753C179.901 128.267 179.544 127.495 178.83 126.436C178.124 125.378 177.681 124.597 177.501 124.095C177.321 123.586 177.23 123.123 177.23 122.708C177.23 121.986 177.446 121.39 177.877 120.92C178.317 120.441 178.869 120.202 179.536 120.202C180.14 120.202 180.736 120.43 181.324 120.884V122.66C180.712 122.166 180.175 121.919 179.712 121.919C179.21 121.919 178.96 122.182 178.96 122.708C178.96 123.154 179.324 123.892 180.053 124.919C180.791 125.938 181.257 126.715 181.453 127.248C181.657 127.773 181.759 128.259 181.759 128.706C181.759 129.498 181.516 130.157 181.03 130.682C180.544 131.2 179.936 131.459 179.207 131.459C178.516 131.459 177.815 131.168 177.101 130.588ZM188.887 128.659V130.518C188.22 131.145 187.487 131.459 186.687 131.459C185.605 131.459 184.766 130.972 184.17 130C183.574 129.028 183.276 127.632 183.276 125.813C183.276 124.041 183.535 122.664 184.053 121.684C184.578 120.696 185.307 120.202 186.24 120.202C188.185 120.202 189.138 122.217 189.099 126.248H185.146C185.146 128.561 185.782 129.718 187.052 129.718C187.742 129.718 188.354 129.365 188.887 128.659ZM185.123 124.848H187.228C187.228 122.841 186.864 121.837 186.134 121.837C185.46 121.837 185.123 122.841 185.123 124.848ZM197.756 129.188V130.612C197.167 131.137 196.681 131.4 196.297 131.4C195.599 131.4 195.14 130.953 194.921 130.059C194.231 130.992 193.549 131.459 192.874 131.459C192.317 131.459 191.827 131.192 191.404 130.659C190.988 130.118 190.781 129.483 190.781 128.753C190.781 127.914 191.075 127.201 191.663 126.613C192.251 126.024 193.313 125.287 194.85 124.401V123.378C194.85 122.453 194.478 121.99 193.733 121.99C192.972 121.99 192.074 122.574 191.039 123.743V121.578C191.996 120.661 192.945 120.202 193.886 120.202C194.67 120.202 195.336 120.461 195.885 120.978C196.442 121.496 196.72 122.194 196.72 123.072V129.094C196.72 129.51 196.819 129.718 197.015 129.718C197.132 129.718 197.379 129.541 197.756 129.188ZM194.85 128.447V125.695C193.368 126.589 192.627 127.514 192.627 128.471C192.627 128.824 192.713 129.114 192.886 129.341C193.059 129.561 193.278 129.671 193.545 129.671C193.874 129.671 194.172 129.494 194.439 129.141C194.713 128.781 194.85 128.549 194.85 128.447ZM199.249 131.165V120.496H201.131V123.378H201.178C201.555 122.108 201.864 121.28 202.108 120.896C202.359 120.512 202.707 120.32 203.154 120.32C203.499 120.32 203.821 120.426 204.119 120.637L203.978 122.566C203.719 122.386 203.445 122.296 203.154 122.296C202.566 122.296 202.08 122.825 201.696 123.884C201.32 124.942 201.131 125.958 201.131 126.93V131.165H199.249ZM210.576 129.071V130.87C209.973 131.263 209.353 131.459 208.718 131.459C207.628 131.459 206.718 130.937 205.989 129.894C205.26 128.851 204.895 127.526 204.895 125.919C204.895 124.241 205.256 122.868 205.977 121.802C206.699 120.735 207.612 120.202 208.718 120.202C209.243 120.202 209.808 120.332 210.412 120.59V122.519C209.847 122.166 209.381 121.99 209.012 121.99C208.345 121.99 207.812 122.339 207.412 123.037C207.02 123.727 206.824 124.668 206.824 125.86C206.824 127.028 207.04 127.957 207.471 128.647C207.902 129.33 208.479 129.671 209.2 129.671C209.624 129.671 210.082 129.471 210.576 129.071ZM212.047 131.165V115.074H213.929V121.555H213.976C214.485 120.653 215.144 120.202 215.952 120.202C216.61 120.202 217.163 120.465 217.61 120.99C218.065 121.516 218.292 122.257 218.292 123.213V131.165H216.41V123.437C216.41 122.41 216.081 121.896 215.422 121.896C215.046 121.896 214.701 122.084 214.387 122.461C214.082 122.837 213.929 123.064 213.929 123.143V131.165H212.047ZM228.878 131.165V115.074H231.066C232.548 115.074 233.724 115.47 234.595 116.262C235.473 117.054 235.912 118.144 235.912 119.532C235.912 120.951 235.508 122.068 234.701 122.884C233.893 123.699 232.787 124.107 231.384 124.107H230.949V131.165H228.878ZM230.949 122.178H231.313C232.999 122.178 233.842 121.257 233.842 119.414C233.842 117.76 232.878 116.956 230.949 117.003V122.178ZM239.794 131.4L236.583 120.496H238.465L240.029 126.589H240.076L241.64 120.496H243.522L240.323 131.4H239.794ZM248.933 129.377V131.047C248.298 131.321 247.745 131.459 247.275 131.459C245.957 131.459 245.298 130.663 245.298 129.071V122.131H244.075V121.966C244.969 120.877 245.949 119.469 247.016 117.744H247.18V120.496H248.933V122.131H247.18V128.224C247.18 128.789 247.231 129.173 247.333 129.377C247.443 129.573 247.639 129.671 247.921 129.671C248.18 129.671 248.517 129.573 248.933 129.377ZM250.039 130.059C250.039 129.698 250.168 129.392 250.427 129.141C250.686 128.883 250.995 128.753 251.356 128.753C251.717 128.753 252.023 128.883 252.273 129.141C252.532 129.392 252.662 129.698 252.662 130.059C252.662 130.42 252.532 130.729 252.273 130.988C252.023 131.247 251.717 131.376 251.356 131.376C250.995 131.376 250.686 131.247 250.427 130.988C250.168 130.729 250.039 130.42 250.039 130.059ZM260.495 131.165V115.074H262.565V129.236H266.541V131.165H260.495ZM271.869 129.377V131.047C271.234 131.321 270.681 131.459 270.211 131.459C268.893 131.459 268.235 130.663 268.235 129.071V122.131H267.012V121.966C267.905 120.877 268.886 119.469 269.952 117.744H270.117V120.496H271.869V122.131H270.117V128.224C270.117 128.789 270.168 129.173 270.27 129.377C270.379 129.573 270.575 129.671 270.858 129.671C271.117 129.671 271.454 129.573 271.869 129.377ZM279.574 131.165H277.692V130.341H277.645C277.198 131 276.629 131.329 275.939 131.329C275.1 131.329 274.386 130.835 273.798 129.847C273.218 128.859 272.928 127.53 272.928 125.86C272.928 124.182 273.218 122.821 273.798 121.778C274.379 120.728 275.124 120.202 276.033 120.202C276.668 120.202 277.221 120.492 277.692 121.073V115.074H279.574V131.165ZM277.692 128.447V123.049C277.441 122.343 277.033 121.99 276.468 121.99C275.967 121.99 275.571 122.335 275.28 123.025C274.99 123.707 274.845 124.672 274.845 125.919C274.845 128.279 275.351 129.459 276.363 129.459C276.739 129.459 277.053 129.31 277.303 129.012C277.562 128.714 277.692 128.526 277.692 128.447ZM281.514 130.059C281.514 129.698 281.644 129.392 281.903 129.141C282.161 128.883 282.471 128.753 282.832 128.753C283.192 128.753 283.498 128.883 283.749 129.141C284.008 129.392 284.137 129.698 284.137 130.059C284.137 130.42 284.008 130.729 283.749 130.988C283.498 131.247 283.192 131.376 282.832 131.376C282.471 131.376 282.161 131.247 281.903 130.988C281.644 130.729 281.514 130.42 281.514 130.059Z" fill="#727271"/>
</svg>
