<svg width="307" height="102" viewBox="0 0 307 102" fill="none" xmlns="http://www.w3.org/2000/svg">
<path d="M5.6135 100V36.535H13.7786V92.3916H29.4593V100H5.6135ZM38.2274 44.2362C37.0522 44.2362 36.047 43.8186 35.2119 42.9836C34.3769 42.1485 33.9593 41.1433 33.9593 39.9681C33.9593 38.7619 34.3769 37.7567 35.2119 36.9525C36.047 36.1175 37.0522 35.6999 38.2274 35.6999C39.4027 35.6999 40.4079 36.1175 41.243 36.9525C42.078 37.7567 42.4956 38.7619 42.4956 39.9681C42.4956 41.1433 42.078 42.1485 41.243 42.9836C40.4079 43.8186 39.4027 44.2362 38.2274 44.2362ZM34.516 100V57.922H41.9389V100H34.516ZM77.1508 92.2061V97.8196C74.8312 99.8918 72.9136 100.928 71.3981 100.928C68.6455 100.928 66.8362 99.1649 65.9702 95.6391C63.2485 99.3196 60.5577 101.16 57.8979 101.16C55.702 101.16 53.7689 100.108 52.0988 98.0051C50.4596 95.8711 49.64 93.3659 49.64 90.4895C49.64 87.1802 50.7998 84.3657 53.1194 82.0461C55.4391 79.7265 59.6299 76.8192 65.6918 73.3243V69.2881C65.6918 65.6386 64.2227 63.8138 61.2845 63.8138C58.2845 63.8138 54.7432 66.118 50.6606 70.7263V62.1901C54.4339 58.5715 58.1762 56.7622 61.8876 56.7622C64.9805 56.7622 67.6094 57.7828 69.7744 59.8241C71.9703 61.8653 73.0682 64.618 73.0682 68.0819V91.8349C73.0682 93.4741 73.4548 94.2937 74.2281 94.2937C74.692 94.2937 75.6662 93.5978 77.1508 92.2061ZM65.6918 89.2833V78.4275C59.8464 81.9533 56.9236 85.6029 56.9236 89.3761C56.9236 90.7679 57.2638 91.9122 57.9443 92.8092C58.6247 93.6752 59.4907 94.1081 60.5423 94.1081C61.8412 94.1081 63.0165 93.4123 64.0681 92.0205C65.1506 90.5978 65.6918 89.6854 65.6918 89.2833ZM80.8622 97.7268V89.5617C83.6148 92.5927 86.0581 94.1081 88.1922 94.1081C89.2438 94.1081 90.1252 93.7679 90.8366 93.0875C91.5479 92.4071 91.9036 91.5411 91.9036 90.4895C91.9036 88.572 90.4964 85.5255 87.6819 81.3502C84.8983 77.1749 83.1509 74.0975 82.4395 72.1181C81.7282 70.1077 81.3725 68.283 81.3725 66.6438C81.3725 63.7984 82.223 61.4478 83.9241 59.5921C85.6561 57.7055 87.8365 56.7622 90.4654 56.7622C92.8469 56.7622 95.1975 57.6591 97.5171 59.4529V66.4582C95.1047 64.5097 92.9861 63.5355 91.1613 63.5355C89.1819 63.5355 88.1922 64.5716 88.1922 66.6438C88.1922 68.4067 89.6304 71.3139 92.5067 75.3656C95.414 79.3863 97.2542 82.4482 98.0274 84.5513C98.8316 86.6235 99.2336 88.541 99.2336 90.304C99.2336 93.4277 98.2749 96.0257 96.3573 98.0979C94.4397 100.139 92.0428 101.16 89.1664 101.16C86.4448 101.16 83.6767 100.015 80.8622 97.7268ZM127.348 90.1184V97.4484C124.719 99.9227 121.827 101.16 118.672 101.16C114.404 101.16 111.095 99.2423 108.744 95.4071C106.394 91.572 105.218 86.0668 105.218 78.8914C105.218 71.9016 106.239 66.4737 108.28 62.6076C110.352 58.7106 113.229 56.7622 116.909 56.7622C124.579 56.7622 128.337 64.7107 128.183 80.6079H112.595C112.595 89.7318 115.1 94.2937 120.11 94.2937C122.832 94.2937 125.244 92.9019 127.348 90.1184ZM112.502 75.0872H120.806C120.806 67.1696 119.368 63.2107 116.492 63.2107C113.832 63.2107 112.502 67.1696 112.502 75.0872ZM134.399 97.7268V89.5617C137.152 92.5927 139.595 94.1081 141.729 94.1081C142.781 94.1081 143.662 93.7679 144.374 93.0875C145.085 92.4071 145.441 91.5411 145.441 90.4895C145.441 88.572 144.033 85.5255 141.219 81.3502C138.435 77.1749 136.688 74.0975 135.977 72.1181C135.265 70.1077 134.909 68.283 134.909 66.6438C134.909 63.7984 135.76 61.4478 137.461 59.5921C139.193 57.7055 141.374 56.7622 144.002 56.7622C146.384 56.7622 148.734 57.6591 151.054 59.4529V66.4582C148.642 64.5097 146.523 63.5355 144.698 63.5355C142.719 63.5355 141.729 64.5716 141.729 66.6438C141.729 68.4067 143.167 71.3139 146.044 75.3656C148.951 79.3863 150.791 82.4482 151.564 84.5513C152.369 86.6235 152.771 88.541 152.771 90.304C152.771 93.4277 151.812 96.0257 149.894 98.0979C147.977 100.139 145.58 101.16 142.703 101.16C139.982 101.16 137.214 100.015 134.399 97.7268Z" fill="#2B2A29"/>
<path d="M173.521 100V36.535H193.284V44.1434H181.686V63.0252H192.495V70.6335H181.686V100H173.521ZM211.423 101.16C207.372 101.16 204.155 99.1959 201.774 95.268C199.423 91.3091 198.248 85.8812 198.248 78.9842C198.248 72.0872 199.423 66.6592 201.774 62.7004C204.155 58.7416 207.372 56.7622 211.423 56.7622C215.475 56.7622 218.692 58.7416 221.073 62.7004C223.455 66.6592 224.645 72.0872 224.645 78.9842C224.645 85.8812 223.455 91.3091 221.073 95.268C218.692 99.1959 215.475 101.16 211.423 101.16ZM211.331 63.8138C207.65 63.8138 205.81 68.8706 205.81 78.9842C205.81 89.0668 207.712 94.1081 211.516 94.1081C215.197 94.1081 217.037 89.0668 217.037 78.9842C217.037 68.8706 215.135 63.8138 211.331 63.8138ZM232.671 100V57.922H240.094V69.2881H240.28C241.764 64.2777 242.986 61.0148 243.945 59.4993C244.934 57.9838 246.311 57.2261 248.074 57.2261C249.434 57.2261 250.702 57.6436 251.878 58.4787L251.321 66.0871C250.3 65.3757 249.218 65.02 248.074 65.02C245.754 65.02 243.836 67.1077 242.321 71.283C240.836 75.4583 240.094 79.4636 240.094 83.2987V100H232.671ZM282.172 92.2061V97.8196C279.852 99.8918 277.935 100.928 276.419 100.928C273.667 100.928 271.857 99.1649 270.991 95.6391C268.27 99.3196 265.579 101.16 262.919 101.16C260.723 101.16 258.79 100.108 257.12 98.0051C255.481 95.8711 254.661 93.3659 254.661 90.4895C254.661 87.1802 255.821 84.3657 258.141 82.0461C260.46 79.7265 264.651 76.8192 270.713 73.3243V69.2881C270.713 65.6386 269.244 63.8138 266.306 63.8138C263.306 63.8138 259.764 66.118 255.682 70.7263V62.1901C259.455 58.5715 263.197 56.7622 266.909 56.7622C270.002 56.7622 272.631 57.7828 274.796 59.8241C276.992 61.8653 278.089 64.618 278.089 68.0819V91.8349C278.089 93.4741 278.476 94.2937 279.249 94.2937C279.713 94.2937 280.687 93.5978 282.172 92.2061ZM270.713 89.2833V78.4275C264.868 81.9533 261.945 85.6029 261.945 89.3761C261.945 90.7679 262.285 91.9122 262.966 92.8092C263.646 93.6752 264.512 94.1081 265.564 94.1081C266.862 94.1081 268.038 93.4123 269.089 92.0205C270.172 90.5978 270.713 89.6854 270.713 89.2833ZM285.883 97.7268V89.5617C288.636 92.5927 291.079 94.1081 293.213 94.1081C294.265 94.1081 295.146 93.7679 295.858 93.0875C296.569 92.4071 296.925 91.5411 296.925 90.4895C296.925 88.572 295.518 85.5255 292.703 81.3502C289.92 77.1749 288.172 74.0975 287.461 72.1181C286.749 70.1077 286.394 68.283 286.394 66.6438C286.394 63.7984 287.244 61.4478 288.945 59.5921C290.677 57.7055 292.858 56.7622 295.487 56.7622C297.868 56.7622 300.219 57.6591 302.538 59.4529V66.4582C300.126 64.5097 298.007 63.5355 296.183 63.5355C294.203 63.5355 293.213 64.5716 293.213 66.6438C293.213 68.4067 294.652 71.3139 297.528 75.3656C300.435 79.3863 302.275 82.4482 303.049 84.5513C303.853 86.6235 304.255 88.541 304.255 90.304C304.255 93.4277 303.296 96.0257 301.379 98.0979C299.461 100.139 297.064 101.16 294.188 101.16C291.466 101.16 288.698 100.015 285.883 97.7268Z" fill="#2B2A29"/>
<path fill-rule="evenodd" clip-rule="evenodd" d="M113.915 0.492873L164.183 50.7228H144.643L113.877 19.9952L87.3449 46.5275L77.6693 36.8141L62.3622 52.1212L52.5732 42.37L77.9717 16.9338L87.6851 26.6472L113.839 0.492873L113.877 0.455078L113.915 0.492873Z" fill="#E31E24"/>
</svg>
