<svg width="25" height="29" viewBox="0 0 25 29" fill="none" xmlns="http://www.w3.org/2000/svg">
<path d="M17.7498 12.7506C17.7498 14.143 17.1967 15.4783 16.2121 16.4629C15.2275 17.4475 13.8922 18.0006 12.4998 18.0006C11.1074 18.0006 9.77204 17.4475 8.78747 16.4629C7.80291 15.4783 7.24978 14.143 7.24978 12.7506C7.24978 11.3582 7.80291 10.0228 8.78747 9.03827C9.77204 8.05371 11.1074 7.50058 12.4998 7.50058C13.8922 7.50058 15.2275 8.05371 16.2121 9.03827C17.1967 10.0228 17.7498 11.3582 17.7498 12.7506ZM15.9998 12.7506C15.9998 11.8223 15.631 10.9321 14.9747 10.2757C14.3183 9.61933 13.428 9.25058 12.4998 9.25058C11.5715 9.25058 10.6813 9.61933 10.0249 10.2757C9.36853 10.9321 8.99978 11.8223 8.99978 12.7506C8.99978 13.6788 9.36853 14.5691 10.0249 15.2255C10.6813 15.8818 11.5715 16.2506 12.4998 16.2506C13.428 16.2506 14.3183 15.8818 14.9747 15.2255C15.631 14.5691 15.9998 13.6788 15.9998 12.7506ZM21.1623 21.4218C23.4599 19.1231 24.7505 16.006 24.7505 12.7558C24.7505 9.50571 23.4599 6.38861 21.1623 4.08983C20.025 2.95177 18.6746 2.04896 17.1882 1.433C15.7019 0.817038 14.1087 0.5 12.4998 0.5C10.8909 0.5 9.2977 0.817038 7.81135 1.433C6.32499 2.04896 4.97458 2.95177 3.83728 4.08983C1.5397 6.38861 0.249023 9.50571 0.249023 12.7558C0.249023 16.006 1.5397 19.1231 3.83728 21.4218L6.49903 24.0451L10.0743 27.5188L10.307 27.7253C11.6633 28.8243 13.6495 28.7543 14.927 27.5188L19.1883 23.3713L21.1623 21.4218ZM5.07103 5.32358C6.04643 4.34775 7.20454 3.57365 8.47919 3.04551C9.75384 2.51736 11.1201 2.24553 12.4998 2.24553C13.8795 2.24553 15.2457 2.51736 16.5204 3.04551C17.795 3.57365 18.9531 4.34775 19.9285 5.32358C21.8443 7.24062 22.9458 9.82339 23.0032 12.533C23.0605 15.2426 22.0694 17.8697 20.2365 19.8661L19.9285 20.1881L17.6168 22.4701L13.7143 26.2641L13.5498 26.4041C13.2472 26.6321 12.8786 26.7554 12.4998 26.7554C12.1209 26.7554 11.7524 26.6321 11.4498 26.4041L11.287 26.2641L6.07203 21.1803L5.07103 20.1881L4.76303 19.8678C2.93017 17.8714 1.93902 15.2443 1.99641 12.5347C2.0538 9.82514 3.15528 7.24237 5.07103 5.32533V5.32358Z" fill="#E8595B"/>
</svg>
