<svg width="50" height="49" viewBox="0 0 50 49" fill="none" xmlns="http://www.w3.org/2000/svg">
<g clip-path="url(#clip0_610_48)">
<path d="M39.5417 1H10.375C5.19733 1 1 5.19733 1 10.375V38.5C1 43.6777 5.19733 47.875 10.375 47.875H39.5417C44.7193 47.875 48.9167 43.6777 48.9167 38.5V10.375C48.9167 5.19733 44.7193 1 39.5417 1Z" stroke="#EB3223" stroke-width="2"/>
<path d="M25.5265 20.3157C26.612 20.3157 27.5002 21.2631 27.5002 22.421C27.5002 23.5789 26.612 24.5262 25.5265 24.5262C24.4411 24.5262 23.5529 23.5789 23.5529 22.421C23.5529 21.2631 24.4411 20.3157 25.5265 20.3157ZM25.5265 30.842C28.191 30.842 31.2502 32.1999 31.4476 32.9472H19.6055C19.8325 32.1894 22.8719 30.842 25.5265 30.842ZM25.5265 18.2104C23.3457 18.2104 21.5792 20.0947 21.5792 22.421C21.5792 24.7473 23.3457 26.6315 25.5265 26.6315C27.7075 26.6315 29.4739 24.7473 29.4739 22.421C29.4739 20.0947 27.7075 18.2104 25.5265 18.2104ZM25.5265 28.7367C22.8917 28.7367 17.6318 30.1472 17.6318 32.9472V35.0525H33.4212V32.9472C33.4212 30.1472 28.1614 28.7367 25.5265 28.7367Z" fill="#EB3223"/>
<path d="M37.6315 15.8422C38.6447 15.8422 39.4736 16.6711 39.4736 17.6843C39.4736 18.6974 38.6447 19.5263 37.6315 19.5263C36.6184 19.5263 35.7894 18.6974 35.7894 17.6843C35.7894 16.6711 36.6184 15.8422 37.6315 15.8422ZM37.6315 25.0526C40.1183 25.0526 42.9736 26.2407 43.1578 26.8947H32.1053C32.317 26.2316 35.1538 25.0526 37.6315 25.0526ZM37.6315 14C35.596 14 33.9474 15.6486 33.9474 17.6843C33.9474 19.7198 35.596 21.3684 37.6315 21.3684C39.6671 21.3684 41.3157 19.7198 41.3157 17.6843C41.3157 15.6486 39.6671 14 37.6315 14ZM37.6315 23.2105C35.1723 23.2105 30.2632 24.4447 30.2632 26.8947V28.7368H44.9999V26.8947C44.9999 24.4447 40.0908 23.2105 37.6315 23.2105Z" fill="#EB3223"/>
<path d="M12.3684 15.8422C13.3816 15.8422 14.2104 16.6711 14.2104 17.6843C14.2104 18.6974 13.3816 19.5263 12.3684 19.5263C11.3552 19.5263 10.5263 18.6974 10.5263 17.6843C10.5263 16.6711 11.3552 15.8422 12.3684 15.8422ZM12.3684 25.0526C14.8552 25.0526 17.7105 26.2407 17.8946 26.8947H6.84209C7.05393 26.2316 9.89067 25.0526 12.3684 25.0526ZM12.3684 14C10.3328 14 8.68418 15.6486 8.68418 17.6843C8.68418 19.7198 10.3328 21.3684 12.3684 21.3684C14.404 21.3684 16.0525 19.7198 16.0525 17.6843C16.0525 15.6486 14.404 14 12.3684 14ZM12.3684 23.2105C9.90915 23.2105 5 24.4447 5 26.8947V28.7368H19.7368V26.8947C19.7368 24.4447 14.8277 23.2105 12.3684 23.2105Z" fill="#EB3223"/>
<path d="M25.5261 24.5263C26.9795 24.5263 28.1577 23.3481 28.1577 21.8947C28.1577 20.4413 26.9795 19.2632 25.5261 19.2632C24.0728 19.2632 22.8945 20.4413 22.8945 21.8947C22.8945 23.3481 24.0728 24.5263 25.5261 24.5263Z" fill="#EB3223"/>
</g>
<defs>
<clipPath id="clip0_610_48">
<rect width="50" height="48.9583" fill="white"/>
</clipPath>
</defs>
</svg>
