<svg width="26" height="25" viewBox="0 0 26 25" fill="none" xmlns="http://www.w3.org/2000/svg">
<path d="M9.62736 1.39528C9.62736 1.09697 9.50884 0.810883 9.29786 0.599947C9.08688 0.38901 8.80073 0.270508 8.50236 0.270508C8.20399 0.270508 7.91784 0.38901 7.70687 0.599947C7.49589 0.810883 7.37736 1.09697 7.37736 1.39528V3.28191C5.5716 3.32226 3.7694 3.46144 1.97886 3.69882C1.83241 3.71832 1.69122 3.76647 1.56338 3.84052C1.43553 3.91456 1.32353 4.01306 1.23376 4.13039C1.14398 4.24772 1.07821 4.38157 1.04018 4.52432C1.00215 4.66706 0.99261 4.81589 1.01211 4.96232C1.03161 5.10875 1.07977 5.2499 1.15383 5.37772C1.2279 5.50554 1.32642 5.61752 1.44377 5.70728C1.56112 5.79703 1.695 5.86279 1.83777 5.90082C1.98054 5.93884 2.12941 5.94837 2.27586 5.92888C5.18443 5.54309 8.12259 5.42862 11.0524 5.58694C10.4316 7.68355 9.57618 9.70343 8.50236 11.6082C7.94152 10.6138 7.43965 9.58722 6.99936 8.53385C6.87935 8.26645 6.65968 8.05645 6.38711 7.94855C6.11455 7.84065 5.81063 7.84338 5.54005 7.95617C5.26948 8.06895 5.05362 8.28287 4.93844 8.55239C4.82326 8.82191 4.81785 9.12573 4.92336 9.39918C5.55441 10.91 6.30269 12.3692 7.16136 13.7633C5.55806 16.106 3.624 18.2044 1.41936 19.9931C1.2996 20.0844 1.19939 20.1988 1.12469 20.3296C1.04999 20.4603 1.00231 20.6047 0.984475 20.7543C0.966643 20.9038 0.979024 21.0554 1.02088 21.2C1.06274 21.3447 1.13323 21.4795 1.22816 21.5964C1.32309 21.7133 1.44054 21.8099 1.57353 21.8806C1.70652 21.9513 1.85236 21.9946 2.00239 22.0078C2.15242 22.0211 2.30359 22.0041 2.44693 21.9579C2.59027 21.9117 2.72287 21.8371 2.83686 21.7387C4.97736 20.0021 6.88195 17.9935 8.50236 15.7639C8.64486 15.9619 8.79036 16.1568 8.93736 16.3503C9.11837 16.5877 9.38632 16.7436 9.68225 16.7835C9.97818 16.8235 10.2779 16.7442 10.5154 16.5632C10.7529 16.3823 10.9087 16.1144 10.9487 15.8185C10.9886 15.5226 10.9094 15.223 10.7284 14.9856C10.4226 14.586 10.1275 14.1785 9.84336 13.7633C11.3774 11.2742 12.5553 8.58259 13.3429 5.76691C13.8079 5.8134 14.2699 5.86889 14.7289 5.92888C15.0246 5.96825 15.324 5.88854 15.561 5.70728C15.798 5.52601 15.9532 5.25804 15.9926 4.96232C16.032 4.6666 15.9523 4.36734 15.771 4.13039C15.5897 3.89344 15.3216 3.7382 15.0259 3.69882C13.2354 3.46098 11.4331 3.32179 9.62736 3.28191V1.39528Z" fill="#192447"/>
<path fill-rule="evenodd" clip-rule="evenodd" d="M17.5039 9.26587C17.7129 9.26588 17.9178 9.32411 18.0956 9.43404C18.2734 9.54398 18.417 9.70126 18.5104 9.88824L24.8854 22.6357C24.9528 22.768 24.9932 22.9123 25.0046 23.0603C25.0159 23.2083 24.9977 23.3571 24.9512 23.4981C24.9048 23.6391 24.8308 23.7695 24.7337 23.8817C24.6366 23.994 24.5182 24.0859 24.3853 24.1522C24.2525 24.2186 24.1078 24.2579 23.9597 24.2681C23.8116 24.2782 23.6629 24.2589 23.5223 24.2114C23.3816 24.1638 23.2518 24.0889 23.1403 23.9909C23.0287 23.8929 22.9377 23.7738 22.8724 23.6405L21.6844 21.2635H13.3249L12.1354 23.6405C12.0701 23.7738 11.9791 23.8929 11.8675 23.9909C11.756 24.0889 11.6262 24.1638 11.4855 24.2114C11.3449 24.2589 11.1962 24.2782 11.0481 24.2681C10.9 24.2579 10.7553 24.2186 10.6225 24.1522C10.4896 24.0859 10.3713 23.994 10.2741 23.8817C10.177 23.7695 10.1031 23.6391 10.0566 23.4981C10.0101 23.3571 9.99196 23.2083 10.0033 23.0603C10.0146 22.9123 10.0551 22.768 10.1224 22.6357L16.4974 9.88824C16.5908 9.70126 16.7344 9.54398 16.9122 9.43404C17.09 9.32411 17.2949 9.26588 17.5039 9.26587ZM20.5594 19.0139L17.5039 12.9056L14.4499 19.0139H20.5594Z" fill="#192447"/>
</svg>
